0
SECTION
2
HEADER
0
ENDSEC
0
SECTION
2
BLOCKS
0
BLOCK
2
Circle
8
Meshes
70
64
10
0.0
20
0.0
30
0.0
3
Circle
0
POLYLINE
66
1
8
Meshes
62
160
70
64
71
90
72
80
0
VERTEX
8
Meshes
10
2.407665
20
2.407666
30
-0.483139
70
192
0
VERTEX
8
Meshes
10
3.363032
20
0.532652
30
-0.483139
70
192
0
VERTEX
8
Meshes
10
3.033835
20
-1.545816
30
-0.483139
70
192
0
VERTEX
8
Meshes
10
1.545816
20
-3.033835
30
-0.483139
70
192
0
VERTEX
8
Meshes
10
-0.532652
20
-3.363032
30
-0.483139
70
192
0
VERTEX
8
Meshes
10
-2.407665
20
-2.407664
30
-0.483139
70
192
0
VERTEX
8
Meshes
10
-3.363032
20
-0.532652
30
-0.483139
70
192
0
VERTEX
8
Meshes
10
-3.033835
20
1.545817
30
-0.483139
70
192
0
VERTEX
8
Meshes
10
-1.545815
20
3.033836
30
-0.483139
70
192
0
VERTEX
8
Meshes
10
0.532654
20
3.363032
30
-0.483139
70
192
0
VERTEX
8
Meshes
10
0.532654
20
3.363032
30
-0.353612
70
192
0
VERTEX
8
Meshes
10
-1.545815
20
3.033836
30
-0.353612
70
192
0
VERTEX
8
Meshes
10
-3.033835
20
1.545817
30
-0.353612
70
192
0
VERTEX
8
Meshes
10
-3.363032
20
-0.532652
30
-0.353612
70
192
0
VERTEX
8
Meshes
10
-2.407665
20
-2.407665
30
-0.353612
70
192
0
VERTEX
8
Meshes
10
-0.532652
20
-3.363032
30
-0.353612
70
192
0
VERTEX
8
Meshes
10
1.545816
20
-3.033835
30
-0.353612
70
192
0
VERTEX
8
Meshes
10
3.033835
20
-1.545817
30
-0.353612
70
192
0
VERTEX
8
Meshes
10
3.363032
20
0.532652
30
-0.353612
70
192
0
VERTEX
8
Meshes
10
2.407665
20
2.407665
30
-0.353612
70
192
0
VERTEX
8
Meshes
10
1.868014
20
1.868014
30
-0.372721
70
192
0
VERTEX
8
Meshes
10
2.609246
20
0.413264
30
-0.372721
70
192
0
VERTEX
8
Meshes
10
2.353835
20
-1.199339
30
-0.372721
70
192
0
VERTEX
8
Meshes
10
1.199339
20
-2.353835
30
-0.372721
70
192
0
VERTEX
8
Meshes
10
-0.413264
20
-2.609246
30
-0.372721
70
192
0
VERTEX
8
Meshes
10
-1.868014
20
-1.868014
30
-0.372721
70
192
0
VERTEX
8
Meshes
10
-2.609246
20
-0.413264
30
-0.372721
70
192
0
VERTEX
8
Meshes
10
-2.353835
20
1.199340
30
-0.372721
70
192
0
VERTEX
8
Meshes
10
-1.199338
20
2.353836
30
-0.372721
70
192
0
VERTEX
8
Meshes
10
0.413266
20
2.609246
30
-0.372721
70
192
0
VERTEX
8
Meshes
10
0.413266
20
2.609246
30
-0.229890
70
192
0
VERTEX
8
Meshes
10
-1.199338
20
2.353835
30
-0.229890
70
192
0
VERTEX
8
Meshes
10
-2.353835
20
1.199339
30
-0.229890
70
192
0
VERTEX
8
Meshes
10
-2.609246
20
-0.413265
30
-0.229890
70
192
0
VERTEX
8
Meshes
10
-1.868014
20
-1.868014
30
-0.229890
70
192
0
VERTEX
8
Meshes
10
-0.413264
20
-2.609247
30
-0.229890
70
192
0
VERTEX
8
Meshes
10
1.199339
20
-2.353836
30
-0.229890
70
192
0
VERTEX
8
Meshes
10
2.353835
20
-1.199340
30
-0.229890
70
192
0
VERTEX
8
Meshes
10
2.609246
20
0.413263
30
-0.229890
70
192
0
VERTEX
8
Meshes
10
1.868014
20
1.868014
30
-0.229890
70
192
0
VERTEX
8
Meshes
10
1.229036
20
1.229035
30
-0.248999
70
192
0
VERTEX
8
Meshes
10
1.716720
20
0.271901
30
-0.248999
70
192
0
VERTEX
8
Meshes
10
1.548676
20
-0.789090
30
-0.248999
70
192
0
VERTEX
8
Meshes
10
0.789090
20
-1.548676
30
-0.248999
70
192
0
VERTEX
8
Meshes
10
-0.271902
20
-1.716721
30
-0.248999
70
192
0
VERTEX
8
Meshes
10
-1.229036
20
-1.229036
30
-0.248999
70
192
0
VERTEX
8
Meshes
10
-1.716720
20
-0.271902
30
-0.248999
70
192
0
VERTEX
8
Meshes
10
-1.548676
20
0.789090
30
-0.248999
70
192
0
VERTEX
8
Meshes
10
-0.789089
20
1.548676
30
-0.248999
70
192
0
VERTEX
8
Meshes
10
0.271903
20
1.716720
30
-0.248999
70
192
0
VERTEX
8
Meshes
10
0.271903
20
1.716719
30
-0.123870
70
192
0
VERTEX
8
Meshes
10
-0.789089
20
1.548675
30
-0.123870
70
192
0
VERTEX
8
Meshes
10
-1.548676
20
0.789089
30
-0.123870
70
192
0
VERTEX
8
Meshes
10
-1.716720
20
-0.271903
30
-0.123870
70
192
0
VERTEX
8
Meshes
10
-1.229036
20
-1.229037
30
-0.123870
70
192
0
VERTEX
8
Meshes
10
-0.271902
20
-1.716721
30
-0.123870
70
192
0
VERTEX
8
Meshes
10
0.789090
20
-1.548677
30
-0.123870
70
192
0
VERTEX
8
Meshes
10
1.548676
20
-0.789091
30
-0.123870
70
192
0
VERTEX
8
Meshes
10
1.716720
20
0.271901
30
-0.123870
70
192
0
VERTEX
8
Meshes
10
1.229036
20
1.229035
30
-0.123870
70
192
0
VERTEX
8
Meshes
10
0.000000
20
0.010750
30
-0.126391
70
192
0
VERTEX
8
Meshes
10
0.000000
20
0.010750
30
-0.126391
70
192
0
VERTEX
8
Meshes
10
0.000000
20
0.010750
30
-0.126391
70
192
0
VERTEX
8
Meshes
10
0.000000
20
0.010750
30
-0.126391
70
192
0
VERTEX
8
Meshes
10
0.000000
20
0.010750
30
-0.126391
70
192
0
VERTEX
8
Meshes
10
0.000000
20
0.010750
30
-0.126391
70
192
0
VERTEX
8
Meshes
10
0.000000
20
0.010750
30
-0.126391
70
192
0
VERTEX
8
Meshes
10
0.000000
20
0.010750
30
-0.126391
70
192
0
VERTEX
8
Meshes
10
0.000000
20
0.010750
30
-0.126391
70
192
0
VERTEX
8
Meshes
10
0.000000
20
0.010750
30
-0.126391
70
192
0
VERTEX
8
Meshes
10
0.026514
20
-0.011850
30
-0.496721
70
192
0
VERTEX
8
Meshes
10
0.026514
20
-0.011850
30
-0.496721
70
192
0
VERTEX
8
Meshes
10
0.026514
20
-0.011850
30
-0.496721
70
192
0
VERTEX
8
Meshes
10
0.026514
20
-0.011850
30
-0.496721
70
192
0
VERTEX
8
Meshes
10
0.026514
20
-0.011850
30
-0.496721
70
192
0
VERTEX
8
Meshes
10
0.026514
20
-0.011850
30
-0.496721
70
192
0
VERTEX
8
Meshes
10
0.026514
20
-0.011850
30
-0.496721
70
192
0
VERTEX
8
Meshes
10
0.026514
20
-0.011850
30
-0.496721
70
192
0
VERTEX
8
Meshes
10
0.026514
20
-0.011850
30
-0.496721
70
192
0
VERTEX
8
Meshes
10
0.026514
20
-0.011850
30
-0.496721
70
192
0
VERTEX
8
Meshes
10
0.026514
20
-0.011850
30
-0.496721
70
192
0
VERTEX
8
Meshes
10
0.026514
20
-0.011850
30
-0.496721
70
192
0
VERTEX
8
Meshes
10
0.026514
20
-0.011850
30
-0.496721
70
192
0
VERTEX
8
Meshes
10
0.026514
20
-0.011850
30
-0.496721
70
192
0
VERTEX
8
Meshes
10
0.026514
20
-0.011850
30
-0.496721
70
192
0
VERTEX
8
Meshes
10
0.026514
20
-0.011850
30
-0.496721
70
192
0
VERTEX
8
Meshes
10
0.026514
20
-0.011850
30
-0.496721
70
192
0
VERTEX
8
Meshes
10
0.026514
20
-0.011850
30
-0.496721
70
192
0
VERTEX
8
Meshes
10
0.026514
20
-0.011850
30
-0.496721
70
192
0
VERTEX
8
Meshes
10
0.026514
20
-0.011850
30
-0.496721
70
192
0
VERTEX
8
Meshes
62
160
10
0.0
20
0.0
30
0.0
70
128
71
1
72
10
73
11
74
20
0
VERTEX
8
Meshes
62
160
10
0.0
20
0.0
30
0.0
70
128
71
10
72
9
73
12
74
11
0
VERTEX
8
Meshes
62
160
10
0.0
20
0.0
30
0.0
70
128
71
9
72
8
73
13
74
12
0
VERTEX
8
Meshes
62
160
10
0.0
20
0.0
30
0.0
70
128
71
8
72
7
73
14
74
13
0
VERTEX
8
Meshes
62
160
10
0.0
20
0.0
30
0.0
70
128
71
7
72
6
73
15
74
14
0
VERTEX
8
Meshes
62
160
10
0.0
20
0.0
30
0.0
70
128
71
6
72
5
73
16
74
15
0
VERTEX
8
Meshes
62
160
10
0.0
20
0.0
30
0.0
70
128
71
5
72
4
73
17
74
16
0
VERTEX
8
Meshes
62
160
10
0.0
20
0.0
30
0.0
70
128
71
4
72
3
73
18
74
17
0
VERTEX
8
Meshes
62
160
10
0.0
20
0.0
30
0.0
70
128
71
3
72
2
73
19
74
18
0
VERTEX
8
Meshes
62
160
10
0.0
20
0.0
30
0.0
70
128
71
2
72
1
73
20
74
19
0
VERTEX
8
Meshes
62
160
10
0.0
20
0.0
30
0.0
70
128
71
19
72
20
73
21
74
22
0
VERTEX
8
Meshes
62
160
10
0.0
20
0.0
30
0.0
70
128
71
18
72
19
73
22
74
23
0
VERTEX
8
Meshes
62
160
10
0.0
20
0.0
30
0.0
70
128
71
17
72
18
73
23
74
24
0
VERTEX
8
Meshes
62
160
10
0.0
20
0.0
30
0.0
70
128
71
16
72
17
73
24
74
25
0
VERTEX
8
Meshes
62
160
10
0.0
20
0.0
30
0.0
70
128
71
15
72
16
73
25
74
26
0
VERTEX
8
Meshes
62
160
10
0.0
20
0.0
30
0.0
70
128
71
14
72
15
73
26
74
27
0
VERTEX
8
Meshes
62
160
10
0.0
20
0.0
30
0.0
70
128
71
13
72
14
73
27
74
28
0
VERTEX
8
Meshes
62
160
10
0.0
20
0.0
30
0.0
70
128
71
12
72
13
73
28
74
29
0
VERTEX
8
Meshes
62
160
10
0.0
20
0.0
30
0.0
70
128
71
11
72
12
73
29
74
30
0
VERTEX
8
Meshes
62
160
10
0.0
20
0.0
30
0.0
70
128
71
20
72
11
73
30
74
21
0
VERTEX
8
Meshes
62
160
10
0.0
20
0.0
30
0.0
70
128
71
21
72
30
73
31
74
40
0
VERTEX
8
Meshes
62
160
10
0.0
20
0.0
30
0.0
70
128
71
30
72
29
73
32
74
31
0
VERTEX
8
Meshes
62
160
10
0.0
20
0.0
30
0.0
70
128
71
29
72
28
73
33
74
32
0
VERTEX
8
Meshes
62
160
10
0.0
20
0.0
30
0.0
70
128
71
28
72
27
73
34
74
33
0
VERTEX
8
Meshes
62
160
10
0.0
20
0.0
30
0.0
70
128
71
27
72
26
73
35
74
34
0
VERTEX
8
Meshes
62
160
10
0.0
20
0.0
30
0.0
70
128
71
26
72
25
73
36
74
35
0
VERTEX
8
Meshes
62
160
10
0.0
20
0.0
30
0.0
70
128
71
25
72
24
73
37
74
36
0
VERTEX
8
Meshes
62
160
10
0.0
20
0.0
30
0.0
70
128
71
24
72
23
73
38
74
37
0
VERTEX
8
Meshes
62
160
10
0.0
20
0.0
30
0.0
70
128
71
23
72
22
73
39
74
38
0
VERTEX
8
Meshes
62
160
10
0.0
20
0.0
30
0.0
70
128
71
22
72
21
73
40
74
39
0
VERTEX
8
Meshes
62
160
10
0.0
20
0.0
30
0.0
70
128
71
39
72
40
73
41
74
42
0
VERTEX
8
Meshes
62
160
10
0.0
20
0.0
30
0.0
70
128
71
38
72
39
73
42
74
43
0
VERTEX
8
Meshes
62
160
10
0.0
20
0.0
30
0.0
70
128
71
37
72
38
73
43
74
44
0
VERTEX
8
Meshes
62
160
10
0.0
20
0.0
30
0.0
70
128
71
36
72
37
73
44
74
45
0
VERTEX
8
Meshes
62
160
10
0.0
20
0.0
30
0.0
70
128
71
35
72
36
73
45
74
46
0
VERTEX
8
Meshes
62
160
10
0.0
20
0.0
30
0.0
70
128
71
34
72
35
73
46
74
47
0
VERTEX
8
Meshes
62
160
10
0.0
20
0.0
30
0.0
70
128
71
33
72
34
73
47
74
48
0
VERTEX
8
Meshes
62
160
10
0.0
20
0.0
30
0.0
70
128
71
32
72
33
73
48
74
49
0
VERTEX
8
Meshes
62
160
10
0.0
20
0.0
30
0.0
70
128
71
31
72
32
73
49
74
50
0
VERTEX
8
Meshes
62
160
10
0.0
20
0.0
30
0.0
70
128
71
40
72
31
73
50
74
41
0
VERTEX
8
Meshes
62
160
10
0.0
20
0.0
30
0.0
70
128
71
41
72
50
73
51
74
60
0
VERTEX
8
Meshes
62
160
10
0.0
20
0.0
30
0.0
70
128
71
50
72
49
73
52
74
51
0
VERTEX
8
Meshes
62
160
10
0.0
20
0.0
30
0.0
70
128
71
49
72
48
73
53
74
52
0
VERTEX
8
Meshes
62
160
10
0.0
20
0.0
30
0.0
70
128
71
48
72
47
73
54
74
53
0
VERTEX
8
Meshes
62
160
10
0.0
20
0.0
30
0.0
70
128
71
47
72
46
73
55
74
54
0
VERTEX
8
Meshes
62
160
10
0.0
20
0.0
30
0.0
70
128
71
46
72
45
73
56
74
55
0
VERTEX
8
Meshes
62
160
10
0.0
20
0.0
30
0.0
70
128
71
45
72
44
73
57
74
56
0
VERTEX
8
Meshes
62
160
10
0.0
20
0.0
30
0.0
70
128
71
44
72
43
73
58
74
57
0
VERTEX
8
Meshes
62
160
10
0.0
20
0.0
30
0.0
70
128
71
43
72
42
73
59
74
58
0
VERTEX
8
Meshes
62
160
10
0.0
20
0.0
30
0.0
70
128
71
42
72
41
73
60
74
59
0
VERTEX
8
Meshes
62
160
10
0.0
20
0.0
30
0.0
70
128
71
59
72
60
73
61
74
62
0
VERTEX
8
Meshes
62
160
10
0.0
20
0.0
30
0.0
70
128
71
58
72
59
73
62
74
63
0
VERTEX
8
Meshes
62
160
10
0.0
20
0.0
30
0.0
70
128
71
57
72
58
73
63
74
64
0
VERTEX
8
Meshes
62
160
10
0.0
20
0.0
30
0.0
70
128
71
56
72
57
73
64
74
65
0
VERTEX
8
Meshes
62
160
10
0.0
20
0.0
30
0.0
70
128
71
55
72
56
73
65
74
66
0
VERTEX
8
Meshes
62
160
10
0.0
20
0.0
30
0.0
70
128
71
54
72
55
73
66
74
67
0
VERTEX
8
Meshes
62
160
10
0.0
20
0.0
30
0.0
70
128
71
53
72
54
73
67
74
68
0
VERTEX
8
Meshes
62
160
10
0.0
20
0.0
30
0.0
70
128
71
52
72
53
73
68
74
69
0
VERTEX
8
Meshes
62
160
10
0.0
20
0.0
30
0.0
70
128
71
51
72
52
73
69
74
70
0
VERTEX
8
Meshes
62
160
10
0.0
20
0.0
30
0.0
70
128
71
60
72
51
73
70
74
61
0
VERTEX
8
Meshes
62
160
10
0.0
20
0.0
30
0.0
70
128
71
61
72
70
73
71
74
80
0
VERTEX
8
Meshes
62
160
10
0.0
20
0.0
30
0.0
70
128
71
70
72
69
73
72
74
71
0
VERTEX
8
Meshes
62
160
10
0.0
20
0.0
30
0.0
70
128
71
69
72
68
73
73
74
72
0
VERTEX
8
Meshes
62
160
10
0.0
20
0.0
30
0.0
70
128
71
68
72
67
73
74
74
73
0
VERTEX
8
Meshes
62
160
10
0.0
20
0.0
30
0.0
70
128
71
67
72
66
73
75
74
74
0
VERTEX
8
Meshes
62
160
10
0.0
20
0.0
30
0.0
70
128
71
66
72
65
73
76
74
75
0
VERTEX
8
Meshes
62
160
10
0.0
20
0.0
30
0.0
70
128
71
65
72
64
73
77
74
76
0
VERTEX
8
Meshes
62
160
10
0.0
20
0.0
30
0.0
70
128
71
64
72
63
73
78
74
77
0
VERTEX
8
Meshes
62
160
10
0.0
20
0.0
30
0.0
70
128
71
63
72
62
73
79
74
78
0
VERTEX
8
Meshes
62
160
10
0.0
20
0.0
30
0.0
70
128
71
62
72
61
73
80
74
79
0
VERTEX
8
Meshes
62
160
10
0.0
20
0.0
30
0.0
70
128
71
1
72
10
73
81
74
90
0
VERTEX
8
Meshes
62
160
10
0.0
20
0.0
30
0.0
70
128
71
10
72
9
73
82
74
81
0
VERTEX
8
Meshes
62
160
10
0.0
20
0.0
30
0.0
70
128
71
9
72
8
73
83
74
82
0
VERTEX
8
Meshes
62
160
10
0.0
20
0.0
30
0.0
70
128
71
8
72
7
73
84
74
83
0
VERTEX
8
Meshes
62
160
10
0.0
20
0.0
30
0.0
70
128
71
7
72
6
73
85
74
84
0
VERTEX
8
Meshes
62
160
10
0.0
20
0.0
30
0.0
70
128
71
6
72
5
73
86
74
85
0
VERTEX
8
Meshes
62
160
10
0.0
20
0.0
30
0.0
70
128
71
5
72
4
73
87
74
86
0
VERTEX
8
Meshes
62
160
10
0.0
20
0.0
30
0.0
70
128
71
4
72
3
73
88
74
87
0
VERTEX
8
Meshes
62
160
10
0.0
20
0.0
30
0.0
70
128
71
3
72
2
73
89
74
88
0
VERTEX
8
Meshes
62
160
10
0.0
20
0.0
30
0.0
70
128
71
2
72
1
73
90
74
89
0
SEQEND
0
ENDBLK
0
ENDSEC
0
SECTION
2
ENTITIES
0
INSERT
8
1
2
Circle
10
0.125572
20
0.020053
30
0.229904
41
1.000000
42
1.000000
43
1.000000
50
0.000000
0
ENDSEC
0
EOF
