0
SECTION
2
HEADER
0
ENDSEC
0
SECTION
2
BLOCKS
0
BLOCK
2
Mesh
8
Meshes
70
64
10
0.0
20
0.0
30
0.0
3
Mesh
0
POLYLINE
66
1
8
Meshes
70
64
71
321
72
328
0
VERTEX
8
Meshes
10
0.450869
20
-1.377983
30
0.000000
70
192
0
VERTEX
8
Meshes
10
0.441714
20
-1.144123
30
0.000000
70
192
0
VERTEX
8
Meshes
10
0.607968
20
-0.831254
30
0.000000
70
192
0
VERTEX
8
Meshes
10
0.714709
20
-0.437016
30
0.000000
70
192
0
VERTEX
8
Meshes
10
0.751489
20
-0.000000
30
0.000000
70
192
0
VERTEX
8
Meshes
10
0.714709
20
0.437016
30
0.000000
70
192
0
VERTEX
8
Meshes
10
0.607968
20
0.831254
30
0.000000
70
192
0
VERTEX
8
Meshes
10
0.441714
20
1.144123
30
0.000000
70
192
0
VERTEX
8
Meshes
10
0.232223
20
1.344997
30
0.000000
70
192
0
VERTEX
8
Meshes
10
-0.000000
20
1.414213
30
-0.000000
70
192
0
VERTEX
8
Meshes
10
0.187872
20
1.344997
30
0.256872
70
192
0
VERTEX
8
Meshes
10
0.357354
20
1.144123
30
0.488599
70
192
0
VERTEX
8
Meshes
10
0.491856
20
0.831254
30
0.672499
70
192
0
VERTEX
8
Meshes
10
0.578211
20
0.437016
30
0.790570
70
192
0
VERTEX
8
Meshes
10
0.607968
20
0.000000
30
0.831254
70
192
0
VERTEX
8
Meshes
10
0.578211
20
-0.437016
30
0.790570
70
192
0
VERTEX
8
Meshes
10
0.491856
20
-0.831254
30
0.865989
70
192
0
VERTEX
8
Meshes
10
0.357354
20
-1.144123
30
0.398304
70
192
0
VERTEX
8
Meshes
10
0.367717
20
-1.377983
30
0.333694
70
192
0
VERTEX
8
Meshes
10
0.150022
20
-1.377983
30
0.539928
70
192
0
VERTEX
8
Meshes
10
0.136497
20
-1.133996
30
0.512503
70
192
0
VERTEX
8
Meshes
10
0.187872
20
-0.816345
30
1.088734
70
192
0
VERTEX
8
Meshes
10
0.220857
20
-0.437016
30
1.150175
70
192
0
VERTEX
8
Meshes
10
0.232223
20
-0.012899
30
1.138608
70
192
0
VERTEX
8
Meshes
10
0.220857
20
0.449915
30
1.046980
70
192
0
VERTEX
8
Meshes
10
0.187872
20
0.857052
30
0.972031
70
192
0
VERTEX
8
Meshes
10
0.136497
20
1.144123
30
0.790569
70
192
0
VERTEX
8
Meshes
10
0.071761
20
1.344997
30
0.415627
70
192
0
VERTEX
8
Meshes
10
-0.071761
20
1.344997
30
0.415627
70
192
0
VERTEX
8
Meshes
10
-0.136497
20
1.144123
30
0.790569
70
192
0
VERTEX
8
Meshes
10
-0.187873
20
0.857052
30
0.972031
70
192
0
VERTEX
8
Meshes
10
-0.220857
20
0.449915
30
1.046980
70
192
0
VERTEX
8
Meshes
10
-0.232223
20
-0.012899
30
1.138608
70
192
0
VERTEX
8
Meshes
10
-0.220857
20
-0.437016
30
1.150175
70
192
0
VERTEX
8
Meshes
10
-0.187873
20
-0.816345
30
1.088734
70
192
0
VERTEX
8
Meshes
10
-0.136497
20
-1.133996
30
0.512503
70
192
0
VERTEX
8
Meshes
10
-0.119063
20
-1.377983
30
0.539928
70
192
0
VERTEX
8
Meshes
10
-0.336758
20
-1.377983
30
0.333694
70
192
0
VERTEX
8
Meshes
10
-0.357355
20
-1.144123
30
0.398303
70
192
0
VERTEX
8
Meshes
10
-0.491856
20
-0.831254
30
0.865989
70
192
0
VERTEX
8
Meshes
10
-0.578212
20
-0.437016
30
0.790570
70
192
0
VERTEX
8
Meshes
10
-0.607968
20
0.000000
30
0.831254
70
192
0
VERTEX
8
Meshes
10
-0.578212
20
0.437016
30
0.790569
70
192
0
VERTEX
8
Meshes
10
-0.491856
20
0.831254
30
0.672499
70
192
0
VERTEX
8
Meshes
10
-0.357355
20
1.144123
30
0.488599
70
192
0
VERTEX
8
Meshes
10
-0.187872
20
1.344997
30
0.256871
70
192
0
VERTEX
8
Meshes
10
-0.232223
20
1.344997
30
-0.000000
70
192
0
VERTEX
8
Meshes
10
-0.441714
20
1.144123
30
-0.000000
70
192
0
VERTEX
8
Meshes
10
-0.607968
20
0.831253
30
-0.000000
70
192
0
VERTEX
8
Meshes
10
-0.714709
20
0.437016
30
-0.000000
70
192
0
VERTEX
8
Meshes
10
-0.751490
20
-0.000000
30
-0.000000
70
192
0
VERTEX
8
Meshes
10
-0.714709
20
-0.437016
30
-0.000000
70
192
0
VERTEX
8
Meshes
10
-0.607968
20
-0.831254
30
0.000000
70
192
0
VERTEX
8
Meshes
10
-0.441715
20
-1.144123
30
0.000000
70
192
0
VERTEX
8
Meshes
10
-0.419910
20
-1.377983
30
0.000000
70
192
0
VERTEX
8
Meshes
10
-0.336758
20
-1.377983
30
-0.333693
70
192
0
VERTEX
8
Meshes
10
-0.357355
20
-1.092525
30
-0.295108
70
192
0
VERTEX
8
Meshes
10
-0.491856
20
-0.792556
30
-0.375813
70
192
0
VERTEX
8
Meshes
10
-0.578212
20
-0.437016
30
-0.442287
70
192
0
VERTEX
8
Meshes
10
-0.607968
20
-0.025799
30
-0.495871
70
192
0
VERTEX
8
Meshes
10
-0.578212
20
0.437016
30
-0.493884
70
192
0
VERTEX
8
Meshes
10
-0.491856
20
0.831253
30
-0.453210
70
192
0
VERTEX
8
Meshes
10
-0.357355
20
1.144123
30
-0.308008
70
192
0
VERTEX
8
Meshes
10
-0.187872
20
1.344997
30
-0.256871
70
192
0
VERTEX
8
Meshes
10
-0.071761
20
1.344997
30
-0.415627
70
192
0
VERTEX
8
Meshes
10
-0.136497
20
1.144122
30
-0.609978
70
192
0
VERTEX
8
Meshes
10
-0.187872
20
0.831253
30
-0.868837
70
192
0
VERTEX
8
Meshes
10
-0.220857
20
0.437016
30
-0.982483
70
192
0
VERTEX
8
Meshes
10
-0.232223
20
-0.025799
30
-1.009614
70
192
0
VERTEX
8
Meshes
10
-0.220857
20
-0.437016
30
-0.930886
70
192
0
VERTEX
8
Meshes
10
-0.187872
20
-0.792556
30
-0.791440
70
192
0
VERTEX
8
Meshes
10
-0.136497
20
-1.066727
30
-0.442287
70
192
0
VERTEX
8
Meshes
10
-0.119063
20
-1.377983
30
-0.539927
70
192
0
VERTEX
8
Meshes
10
0.150022
20
-1.377983
30
-0.539927
70
192
0
VERTEX
8
Meshes
10
0.136497
20
-1.066727
30
-0.442286
70
192
0
VERTEX
8
Meshes
10
0.187872
20
-0.792556
30
-0.791440
70
192
0
VERTEX
8
Meshes
10
0.220857
20
-0.437016
30
-0.930886
70
192
0
VERTEX
8
Meshes
10
0.232223
20
-0.025799
30
-1.009614
70
192
0
VERTEX
8
Meshes
10
0.220857
20
0.437016
30
-0.982483
70
192
0
VERTEX
8
Meshes
10
0.187872
20
0.831253
30
-0.868836
70
192
0
VERTEX
8
Meshes
10
0.136497
20
1.144122
30
-0.609978
70
192
0
VERTEX
8
Meshes
10
0.071761
20
1.344997
30
-0.415627
70
192
0
VERTEX
8
Meshes
10
0.187872
20
1.344997
30
-0.256871
70
192
0
VERTEX
8
Meshes
10
0.357354
20
1.144123
30
-0.308007
70
192
0
VERTEX
8
Meshes
10
0.491856
20
0.831253
30
-0.453209
70
192
0
VERTEX
8
Meshes
10
0.578212
20
0.437016
30
-0.493884
70
192
0
VERTEX
8
Meshes
10
0.607968
20
-0.025799
30
-0.495870
70
192
0
VERTEX
8
Meshes
10
0.578212
20
-0.437016
30
-0.442286
70
192
0
VERTEX
8
Meshes
10
0.491856
20
-0.792556
30
-0.375813
70
192
0
VERTEX
8
Meshes
10
0.357355
20
-1.092525
30
-0.295108
70
192
0
VERTEX
8
Meshes
10
0.367717
20
-1.377983
30
-0.333693
70
192
0
VERTEX
8
Meshes
10
0.367717
20
-1.579219
30
-0.333693
70
192
0
VERTEX
8
Meshes
10
0.150022
20
-1.579219
30
-0.539927
70
192
0
VERTEX
8
Meshes
10
-0.119063
20
-1.579219
30
-0.539927
70
192
0
VERTEX
8
Meshes
10
-0.336758
20
-1.579219
30
-0.333693
70
192
0
VERTEX
8
Meshes
10
-0.419910
20
-1.579219
30
0.000000
70
192
0
VERTEX
8
Meshes
10
-0.336758
20
-1.579219
30
0.333694
70
192
0
VERTEX
8
Meshes
10
-0.119063
20
-1.579219
30
0.539928
70
192
0
VERTEX
8
Meshes
10
0.150022
20
-1.579219
30
0.539928
70
192
0
VERTEX
8
Meshes
10
0.367717
20
-1.579219
30
0.333694
70
192
0
VERTEX
8
Meshes
10
0.450869
20
-1.579219
30
0.000000
70
192
0
VERTEX
8
Meshes
10
0.936623
20
-1.764975
30
0.000000
70
192
0
VERTEX
8
Meshes
10
0.757744
20
-1.764975
30
0.342175
70
192
0
VERTEX
8
Meshes
10
0.289432
20
-1.764975
30
0.738533
70
192
0
VERTEX
8
Meshes
10
-0.289433
20
-1.764975
30
0.738533
70
192
0
VERTEX
8
Meshes
10
-0.757744
20
-1.764975
30
0.342175
70
192
0
VERTEX
8
Meshes
10
-0.936623
20
-1.764975
30
0.000000
70
192
0
VERTEX
8
Meshes
10
-0.757744
20
-1.764975
30
-0.342175
70
192
0
VERTEX
8
Meshes
10
-0.289432
20
-1.764975
30
-0.553651
70
192
0
VERTEX
8
Meshes
10
0.289433
20
-1.764975
30
-0.553651
70
192
0
VERTEX
8
Meshes
10
0.757744
20
-1.764975
30
-0.342175
70
192
0
VERTEX
8
Meshes
10
1.501163
20
-1.997170
30
-0.337364
70
192
0
VERTEX
8
Meshes
10
0.573394
20
-1.997170
30
-0.730748
70
192
0
VERTEX
8
Meshes
10
-0.573392
20
-1.997170
30
-0.730748
70
192
0
VERTEX
8
Meshes
10
-1.501162
20
-1.997170
30
-0.337364
70
192
0
VERTEX
8
Meshes
10
-1.855538
20
-1.997170
30
0.000000
70
192
0
VERTEX
8
Meshes
10
-1.501162
20
-1.997170
30
0.337364
70
192
0
VERTEX
8
Meshes
10
-0.573393
20
-1.997170
30
0.730748
70
192
0
VERTEX
8
Meshes
10
0.573393
20
-1.997170
30
0.730748
70
192
0
VERTEX
8
Meshes
10
1.501162
20
-1.997170
30
0.337364
70
192
0
VERTEX
8
Meshes
10
1.855538
20
-1.997170
30
0.000000
70
192
0
VERTEX
8
Meshes
10
2.222929
20
-2.260325
30
0.000000
70
192
0
VERTEX
8
Meshes
10
1.798387
20
-2.260325
30
0.362435
70
192
0
VERTEX
8
Meshes
10
0.686923
20
-2.260325
30
0.771314
70
192
0
VERTEX
8
Meshes
10
-0.686923
20
-2.260325
30
0.771314
70
192
0
VERTEX
8
Meshes
10
-1.798388
20
-2.260325
30
0.362435
70
192
0
VERTEX
8
Meshes
10
-2.222929
20
-2.260325
30
0.000000
70
192
0
VERTEX
8
Meshes
10
-1.798388
20
-2.260325
30
-0.362435
70
192
0
VERTEX
8
Meshes
10
-0.686922
20
-2.260325
30
-0.771314
70
192
0
VERTEX
8
Meshes
10
0.686924
20
-2.260325
30
-0.771314
70
192
0
VERTEX
8
Meshes
10
1.798388
20
-2.260325
30
-0.362435
70
192
0
VERTEX
8
Meshes
10
1.798388
20
-2.864032
30
-0.362435
70
192
0
VERTEX
8
Meshes
10
0.686924
20
-2.864032
30
-0.771314
70
192
0
VERTEX
8
Meshes
10
-0.686922
20
-2.864032
30
-0.771314
70
192
0
VERTEX
8
Meshes
10
-1.798388
20
-2.864032
30
-0.362435
70
192
0
VERTEX
8
Meshes
10
-2.222929
20
-2.864032
30
0.000000
70
192
0
VERTEX
8
Meshes
10
-1.798388
20
-2.864032
30
0.362435
70
192
0
VERTEX
8
Meshes
10
-0.686923
20
-2.864032
30
0.771314
70
192
0
VERTEX
8
Meshes
10
0.686923
20
-2.864032
30
0.771314
70
192
0
VERTEX
8
Meshes
10
1.798387
20
-2.864032
30
0.362435
70
192
0
VERTEX
8
Meshes
10
2.222929
20
-2.864032
30
0.000000
70
192
0
VERTEX
8
Meshes
10
1.798387
20
-2.864032
30
0.362435
70
192
0
VERTEX
8
Meshes
10
0.686923
20
-2.864032
30
0.771314
70
192
0
VERTEX
8
Meshes
10
-0.686923
20
-2.864032
30
0.771314
70
192
0
VERTEX
8
Meshes
10
-1.798388
20
-2.864032
30
0.362435
70
192
0
VERTEX
8
Meshes
10
-2.222929
20
-2.864032
30
0.000000
70
192
0
VERTEX
8
Meshes
10
-1.798388
20
-2.864032
30
-0.362435
70
192
0
VERTEX
8
Meshes
10
-0.686922
20
-2.864032
30
-0.771314
70
192
0
VERTEX
8
Meshes
10
0.686924
20
-2.864032
30
-0.771314
70
192
0
VERTEX
8
Meshes
10
1.798388
20
-2.864032
30
-0.362435
70
192
0
VERTEX
8
Meshes
10
1.769133
20
-3.622536
30
-0.356539
70
192
0
VERTEX
8
Meshes
10
0.675750
20
-3.622536
30
-0.761774
70
192
0
VERTEX
8
Meshes
10
-0.675747
20
-3.622536
30
-0.761774
70
192
0
VERTEX
8
Meshes
10
-1.769132
20
-3.622536
30
-0.356539
70
192
0
VERTEX
8
Meshes
10
-2.186767
20
-3.622536
30
0.000000
70
192
0
VERTEX
8
Meshes
10
-1.769132
20
-3.622536
30
0.356539
70
192
0
VERTEX
8
Meshes
10
-0.675748
20
-3.622536
30
0.761774
70
192
0
VERTEX
8
Meshes
10
0.675749
20
-3.622536
30
0.761774
70
192
0
VERTEX
8
Meshes
10
1.769132
20
-3.622536
30
0.356540
70
192
0
VERTEX
8
Meshes
10
2.186767
20
-3.622536
30
0.000000
70
192
0
VERTEX
8
Meshes
10
1.769132
20
-3.622536
30
0.356540
70
192
0
VERTEX
8
Meshes
10
0.675749
20
-3.622536
30
0.761774
70
192
0
VERTEX
8
Meshes
10
-0.675748
20
-3.622536
30
0.761774
70
192
0
VERTEX
8
Meshes
10
-1.769132
20
-3.622536
30
0.356539
70
192
0
VERTEX
8
Meshes
10
-2.186767
20
-3.622536
30
0.000000
70
192
0
VERTEX
8
Meshes
10
-1.769132
20
-3.622536
30
-0.356539
70
192
0
VERTEX
8
Meshes
10
-0.675747
20
-3.622536
30
-0.761774
70
192
0
VERTEX
8
Meshes
10
0.675750
20
-3.622536
30
-0.761774
70
192
0
VERTEX
8
Meshes
10
1.769133
20
-3.622536
30
-0.356539
70
192
0
VERTEX
8
Meshes
10
1.680178
20
-4.628715
30
-0.338611
70
192
0
VERTEX
8
Meshes
10
0.641772
20
-4.628715
30
-0.547885
70
192
0
VERTEX
8
Meshes
10
-0.641768
20
-4.628715
30
-0.547885
70
192
0
VERTEX
8
Meshes
10
-1.680175
20
-4.628715
30
-0.338611
70
192
0
VERTEX
8
Meshes
10
-2.076810
20
-4.628715
30
0.000000
70
192
0
VERTEX
8
Meshes
10
-1.680175
20
-4.628715
30
0.338612
70
192
0
VERTEX
8
Meshes
10
-0.641769
20
-4.628715
30
0.732767
70
192
0
VERTEX
8
Meshes
10
0.641771
20
-4.628715
30
0.732767
70
192
0
VERTEX
8
Meshes
10
1.680177
20
-4.628715
30
0.338612
70
192
0
VERTEX
8
Meshes
10
2.076812
20
-4.628715
30
0.000001
70
192
0
VERTEX
8
Meshes
10
1.680177
20
-4.628715
30
0.338612
70
192
0
VERTEX
8
Meshes
10
0.641771
20
-4.628715
30
0.732767
70
192
0
VERTEX
8
Meshes
10
-0.641769
20
-4.628715
30
0.732767
70
192
0
VERTEX
8
Meshes
10
-1.680175
20
-4.628715
30
0.338612
70
192
0
VERTEX
8
Meshes
10
-2.076810
20
-4.628715
30
0.000000
70
192
0
VERTEX
8
Meshes
10
-1.680175
20
-4.628715
30
-0.338611
70
192
0
VERTEX
8
Meshes
10
-0.641768
20
-4.628715
30
-0.547885
70
192
0
VERTEX
8
Meshes
10
0.641772
20
-4.628715
30
-0.547885
70
192
0
VERTEX
8
Meshes
10
1.680178
20
-4.628715
30
-0.338611
70
192
0
VERTEX
8
Meshes
10
1.601071
20
-5.784266
30
-0.322668
70
192
0
VERTEX
8
Meshes
10
0.611557
20
-5.784266
30
-0.522088
70
192
0
VERTEX
8
Meshes
10
-0.611551
20
-5.784266
30
-0.522088
70
192
0
VERTEX
8
Meshes
10
-1.601067
20
-5.784266
30
-0.322668
70
192
0
VERTEX
8
Meshes
10
-1.979028
20
-5.784266
30
0.000001
70
192
0
VERTEX
8
Meshes
10
-1.601067
20
-5.784266
30
0.322669
70
192
0
VERTEX
8
Meshes
10
-0.611552
20
-5.784266
30
0.706971
70
192
0
VERTEX
8
Meshes
10
0.611556
20
-5.784266
30
0.706971
70
192
0
VERTEX
8
Meshes
10
1.601070
20
-5.784266
30
0.322669
70
192
0
VERTEX
8
Meshes
10
1.979031
20
-5.784266
30
0.000001
70
192
0
VERTEX
8
Meshes
10
1.601070
20
-5.784266
30
0.322669
70
192
0
VERTEX
8
Meshes
10
0.611556
20
-5.784266
30
0.706971
70
192
0
VERTEX
8
Meshes
10
-0.611552
20
-5.784266
30
0.706971
70
192
0
VERTEX
8
Meshes
10
-1.601067
20
-5.784266
30
0.322669
70
192
0
VERTEX
8
Meshes
10
-1.979028
20
-5.784266
30
0.000001
70
192
0
VERTEX
8
Meshes
10
-1.601067
20
-5.784266
30
-0.322668
70
192
0
VERTEX
8
Meshes
10
-0.611551
20
-5.784266
30
-0.522088
70
192
0
VERTEX
8
Meshes
10
0.611557
20
-5.784266
30
-0.522088
70
192
0
VERTEX
8
Meshes
10
1.601071
20
-5.784266
30
-0.322668
70
192
0
VERTEX
8
Meshes
10
1.565587
20
-6.939817
30
-0.315516
70
192
0
VERTEX
8
Meshes
10
0.598003
20
-6.939817
30
-0.510517
70
192
0
VERTEX
8
Meshes
10
-0.597996
20
-6.939817
30
-0.510517
70
192
0
VERTEX
8
Meshes
10
-1.565581
20
-6.939817
30
-0.315517
70
192
0
VERTEX
8
Meshes
10
-1.935165
20
-6.939817
30
0.000001
70
192
0
VERTEX
8
Meshes
10
-1.565581
20
-6.939817
30
0.315518
70
192
0
VERTEX
8
Meshes
10
-0.597997
20
-6.939817
30
0.695400
70
192
0
VERTEX
8
Meshes
10
0.598002
20
-6.939817
30
0.695400
70
192
0
VERTEX
8
Meshes
10
1.565586
20
-6.939817
30
0.315518
70
192
0
VERTEX
8
Meshes
10
1.935170
20
-6.939817
30
0.000001
70
192
0
VERTEX
8
Meshes
10
1.565586
20
-6.939817
30
0.315518
70
192
0
VERTEX
8
Meshes
10
0.598002
20
-6.939817
30
0.695400
70
192
0
VERTEX
8
Meshes
10
-0.597997
20
-6.939817
30
0.695400
70
192
0
VERTEX
8
Meshes
10
-1.565581
20
-6.939817
30
0.315518
70
192
0
VERTEX
8
Meshes
10
-1.935165
20
-6.939817
30
0.000001
70
192
0
VERTEX
8
Meshes
10
-1.565581
20
-6.939817
30
-0.315517
70
192
0
VERTEX
8
Meshes
10
-0.597996
20
-6.939817
30
-0.510517
70
192
0
VERTEX
8
Meshes
10
0.598003
20
-6.939817
30
-0.510517
70
192
0
VERTEX
8
Meshes
10
1.565587
20
-6.939817
30
-0.315516
70
192
0
VERTEX
8
Meshes
10
1.312762
20
-8.018332
30
-0.264564
70
192
0
VERTEX
8
Meshes
10
0.501433
20
-8.018332
30
-0.428074
70
192
0
VERTEX
8
Meshes
10
-0.501425
20
-8.018332
30
-0.428074
70
192
0
VERTEX
8
Meshes
10
-1.312755
20
-8.018332
30
-0.264564
70
192
0
VERTEX
8
Meshes
10
-1.622655
20
-8.018332
30
0.000001
70
192
0
VERTEX
8
Meshes
10
-1.312755
20
-8.018332
30
0.264566
70
192
0
VERTEX
8
Meshes
10
-0.501426
20
-8.018332
30
0.428076
70
192
0
VERTEX
8
Meshes
10
0.501433
20
-8.018332
30
0.428076
70
192
0
VERTEX
8
Meshes
10
1.312762
20
-8.018332
30
0.264566
70
192
0
VERTEX
8
Meshes
10
1.622662
20
-8.018332
30
0.000001
70
192
0
VERTEX
8
Meshes
10
1.312762
20
-8.018332
30
0.264566
70
192
0
VERTEX
8
Meshes
10
0.501433
20
-8.018332
30
0.428076
70
192
0
VERTEX
8
Meshes
10
-0.501426
20
-8.018332
30
0.428076
70
192
0
VERTEX
8
Meshes
10
-1.312755
20
-8.018332
30
0.264566
70
192
0
VERTEX
8
Meshes
10
-1.622655
20
-8.018332
30
0.000001
70
192
0
VERTEX
8
Meshes
10
-1.312755
20
-8.018332
30
-0.264564
70
192
0
VERTEX
8
Meshes
10
-0.501425
20
-8.018332
30
-0.428074
70
192
0
VERTEX
8
Meshes
10
0.501433
20
-8.018332
30
-0.428074
70
192
0
VERTEX
8
Meshes
10
1.312762
20
-8.018332
30
-0.264564
70
192
0
VERTEX
8
Meshes
10
1.312763
20
-9.366476
30
-0.264563
70
192
0
VERTEX
8
Meshes
10
0.501434
20
-9.366476
30
-0.428073
70
192
0
VERTEX
8
Meshes
10
-0.501424
20
-9.366476
30
-0.428073
70
192
0
VERTEX
8
Meshes
10
-1.312754
20
-9.366476
30
-0.264564
70
192
0
VERTEX
8
Meshes
10
-1.622654
20
-9.366476
30
0.000001
70
192
0
VERTEX
8
Meshes
10
-1.312754
20
-9.366476
30
0.264566
70
192
0
VERTEX
8
Meshes
10
-0.501425
20
-9.366476
30
0.428076
70
192
0
VERTEX
8
Meshes
10
0.501434
20
-9.366476
30
0.428076
70
192
0
VERTEX
8
Meshes
10
1.312763
20
-9.366476
30
0.264566
70
192
0
VERTEX
8
Meshes
10
1.622663
20
-9.366476
30
0.000001
70
192
0
VERTEX
8
Meshes
10
1.312763
20
-9.366476
30
0.264566
70
192
0
VERTEX
8
Meshes
10
0.501434
20
-9.366476
30
0.428076
70
192
0
VERTEX
8
Meshes
10
-0.501425
20
-9.366476
30
0.428076
70
192
0
VERTEX
8
Meshes
10
-1.312754
20
-9.366476
30
0.264566
70
192
0
VERTEX
8
Meshes
10
-1.622654
20
-9.366476
30
0.000001
70
192
0
VERTEX
8
Meshes
10
-1.312754
20
-9.366476
30
-0.264564
70
192
0
VERTEX
8
Meshes
10
-0.501424
20
-9.366476
30
-0.428073
70
192
0
VERTEX
8
Meshes
10
0.501434
20
-9.366476
30
-0.428073
70
192
0
VERTEX
8
Meshes
10
1.312763
20
-9.366476
30
-0.264563
70
192
0
VERTEX
8
Meshes
10
1.312765
20
-10.907211
30
-0.264563
70
192
0
VERTEX
8
Meshes
10
0.501435
20
-10.907211
30
-0.428073
70
192
0
VERTEX
8
Meshes
10
-0.501423
20
-10.907211
30
-0.428073
70
192
0
VERTEX
8
Meshes
10
-1.312753
20
-10.907211
30
-0.264563
70
192
0
VERTEX
8
Meshes
10
-1.622653
20
-10.907211
30
0.000001
70
192
0
VERTEX
8
Meshes
10
-1.312753
20
-10.907211
30
0.264566
70
192
0
VERTEX
8
Meshes
10
-0.501424
20
-10.907211
30
0.428076
70
192
0
VERTEX
8
Meshes
10
0.501435
20
-10.907211
30
0.428076
70
192
0
VERTEX
8
Meshes
10
1.312764
20
-10.907211
30
0.264566
70
192
0
VERTEX
8
Meshes
10
1.622664
20
-10.907211
30
0.000001
70
192
0
VERTEX
8
Meshes
10
1.312764
20
-10.907211
30
0.264566
70
192
0
VERTEX
8
Meshes
10
0.501435
20
-10.907211
30
0.428076
70
192
0
VERTEX
8
Meshes
10
-0.501424
20
-10.907211
30
0.428076
70
192
0
VERTEX
8
Meshes
10
-1.312753
20
-10.907211
30
0.264566
70
192
0
VERTEX
8
Meshes
10
-1.622653
20
-10.907211
30
0.000001
70
192
0
VERTEX
8
Meshes
10
-1.312753
20
-10.907211
30
-0.264563
70
192
0
VERTEX
8
Meshes
10
-0.501423
20
-10.907211
30
-0.428073
70
192
0
VERTEX
8
Meshes
10
0.501435
20
-10.907211
30
-0.428073
70
192
0
VERTEX
8
Meshes
10
1.312765
20
-10.907211
30
-0.264563
70
192
0
VERTEX
8
Meshes
10
1.312765
20
-12.101281
30
-0.264563
70
192
0
VERTEX
8
Meshes
10
0.501436
20
-12.101281
30
-0.428073
70
192
0
VERTEX
8
Meshes
10
-0.501422
20
-12.101281
30
-0.428073
70
192
0
VERTEX
8
Meshes
10
-1.312752
20
-12.101281
30
-0.264563
70
192
0
VERTEX
8
Meshes
10
-1.622652
20
-12.101281
30
0.000001
70
192
0
VERTEX
8
Meshes
10
-1.312752
20
-12.101281
30
0.264566
70
192
0
VERTEX
8
Meshes
10
-0.501423
20
-12.101281
30
0.428076
70
192
0
VERTEX
8
Meshes
10
0.501436
20
-12.101281
30
0.428076
70
192
0
VERTEX
8
Meshes
10
1.312765
20
-12.101281
30
0.264566
70
192
0
VERTEX
8
Meshes
10
1.622665
20
-12.101281
30
0.000001
70
192
0
VERTEX
8
Meshes
10
1.312765
20
-12.101281
30
0.264566
70
192
0
VERTEX
8
Meshes
10
0.501436
20
-12.101281
30
0.428076
70
192
0
VERTEX
8
Meshes
10
-0.501423
20
-12.101281
30
0.428076
70
192
0
VERTEX
8
Meshes
10
-1.312752
20
-12.101281
30
0.264566
70
192
0
VERTEX
8
Meshes
10
-1.622652
20
-12.101281
30
0.000001
70
192
0
VERTEX
8
Meshes
10
-1.312752
20
-12.101281
30
-0.264563
70
192
0
VERTEX
8
Meshes
10
-0.501422
20
-12.101281
30
-0.428073
70
192
0
VERTEX
8
Meshes
10
0.501436
20
-12.101281
30
-0.428073
70
192
0
VERTEX
8
Meshes
10
1.312765
20
-12.101281
30
-0.264563
70
192
0
VERTEX
8
Meshes
10
1.312766
20
-13.437854
30
-0.308209
70
192
0
VERTEX
8
Meshes
10
0.501437
20
-13.440504
30
-0.471698
70
192
0
VERTEX
8
Meshes
10
-0.501421
20
-13.440504
30
-0.471698
70
192
0
VERTEX
8
Meshes
10
-1.312751
20
-13.437854
30
-0.308209
70
192
0
VERTEX
8
Meshes
10
-1.622651
20
-13.433565
30
-0.043680
70
192
0
VERTEX
8
Meshes
10
-1.312751
20
-13.429276
30
0.220850
70
192
0
VERTEX
8
Meshes
10
-0.501422
20
-13.426626
30
0.384339
70
192
0
VERTEX
8
Meshes
10
0.501437
20
-13.426626
30
0.384339
70
192
0
VERTEX
8
Meshes
10
1.312766
20
-13.429276
30
0.220850
70
192
0
VERTEX
8
Meshes
10
1.622666
20
-13.433565
30
-0.043679
70
192
0
VERTEX
8
Meshes
10
1.312766
20
-13.429276
30
0.220850
70
192
0
VERTEX
8
Meshes
10
0.501437
20
-13.426626
30
0.384339
70
192
0
VERTEX
8
Meshes
10
-0.501422
20
-13.426626
30
0.384339
70
192
0
VERTEX
8
Meshes
10
-1.312751
20
-13.429276
30
0.220850
70
192
0
VERTEX
8
Meshes
10
-1.622651
20
-13.433565
30
-0.043680
70
192
0
VERTEX
8
Meshes
10
-1.312751
20
-13.437854
30
-0.308209
70
192
0
VERTEX
8
Meshes
10
-0.501421
20
-13.440504
30
-0.471698
70
192
0
VERTEX
8
Meshes
10
0.501437
20
-13.440504
30
-0.471698
70
192
0
VERTEX
8
Meshes
10
1.312766
20
-13.437854
30
-0.308209
70
192
0
VERTEX
8
Meshes
62
254
10
0.0
20
0.0
30
0.0
70
128
71
10
72
11
73
9
0
VERTEX
8
Meshes
62
254
10
0.0
20
0.0
30
0.0
70
128
71
9
72
11
73
12
74
8
0
VERTEX
8
Meshes
62
254
10
0.0
20
0.0
30
0.0
70
128
71
8
72
12
73
13
74
7
0
VERTEX
8
Meshes
62
254
10
0.0
20
0.0
30
0.0
70
128
71
7
72
13
73
14
74
6
0
VERTEX
8
Meshes
62
254
10
0.0
20
0.0
30
0.0
70
128
71
6
72
14
73
15
74
5
0
VERTEX
8
Meshes
62
254
10
0.0
20
0.0
30
0.0
70
128
71
5
72
15
73
16
74
4
0
VERTEX
8
Meshes
62
254
10
0.0
20
0.0
30
0.0
70
128
71
4
72
16
73
17
74
3
0
VERTEX
8
Meshes
62
254
10
0.0
20
0.0
30
0.0
70
128
71
3
72
17
73
18
74
2
0
VERTEX
8
Meshes
62
254
10
0.0
20
0.0
30
0.0
70
128
71
19
72
1
73
2
74
18
0
VERTEX
8
Meshes
62
254
10
0.0
20
0.0
30
0.0
70
128
71
18
72
21
73
20
74
19
0
VERTEX
8
Meshes
62
254
10
0.0
20
0.0
30
0.0
70
128
71
17
72
22
73
21
74
18
0
VERTEX
8
Meshes
62
254
10
0.0
20
0.0
30
0.0
70
128
71
16
72
23
73
22
74
17
0
VERTEX
8
Meshes
62
254
10
0.0
20
0.0
30
0.0
70
128
71
15
72
24
73
23
74
16
0
VERTEX
8
Meshes
62
254
10
0.0
20
0.0
30
0.0
70
128
71
14
72
25
73
24
74
15
0
VERTEX
8
Meshes
62
254
10
0.0
20
0.0
30
0.0
70
128
71
13
72
26
73
25
74
14
0
VERTEX
8
Meshes
62
254
10
0.0
20
0.0
30
0.0
70
128
71
12
72
27
73
26
74
13
0
VERTEX
8
Meshes
62
254
10
0.0
20
0.0
30
0.0
70
128
71
11
72
28
73
27
74
12
0
VERTEX
8
Meshes
62
254
10
0.0
20
0.0
30
0.0
70
128
71
10
72
28
73
11
0
VERTEX
8
Meshes
62
254
10
0.0
20
0.0
30
0.0
70
128
71
10
72
29
73
28
0
VERTEX
8
Meshes
62
254
10
0.0
20
0.0
30
0.0
70
128
71
28
72
29
73
30
74
27
0
VERTEX
8
Meshes
62
254
10
0.0
20
0.0
30
0.0
70
128
71
27
72
30
73
31
74
26
0
VERTEX
8
Meshes
62
254
10
0.0
20
0.0
30
0.0
70
128
71
26
72
31
73
32
74
25
0
VERTEX
8
Meshes
62
254
10
0.0
20
0.0
30
0.0
70
128
71
25
72
32
73
33
74
24
0
VERTEX
8
Meshes
62
254
10
0.0
20
0.0
30
0.0
70
128
71
24
72
33
73
34
74
23
0
VERTEX
8
Meshes
62
254
10
0.0
20
0.0
30
0.0
70
128
71
23
72
34
73
35
74
22
0
VERTEX
8
Meshes
62
254
10
0.0
20
0.0
30
0.0
70
128
71
22
72
35
73
36
74
21
0
VERTEX
8
Meshes
62
254
10
0.0
20
0.0
30
0.0
70
128
71
21
72
36
73
37
74
20
0
VERTEX
8
Meshes
62
254
10
0.0
20
0.0
30
0.0
70
128
71
36
72
39
73
38
74
37
0
VERTEX
8
Meshes
62
254
10
0.0
20
0.0
30
0.0
70
128
71
35
72
40
73
39
74
36
0
VERTEX
8
Meshes
62
254
10
0.0
20
0.0
30
0.0
70
128
71
34
72
41
73
40
74
35
0
VERTEX
8
Meshes
62
254
10
0.0
20
0.0
30
0.0
70
128
71
33
72
42
73
41
74
34
0
VERTEX
8
Meshes
62
254
10
0.0
20
0.0
30
0.0
70
128
71
32
72
43
73
42
74
33
0
VERTEX
8
Meshes
62
254
10
0.0
20
0.0
30
0.0
70
128
71
31
72
44
73
43
74
32
0
VERTEX
8
Meshes
62
254
10
0.0
20
0.0
30
0.0
70
128
71
30
72
45
73
44
74
31
0
VERTEX
8
Meshes
62
254
10
0.0
20
0.0
30
0.0
70
128
71
29
72
46
73
45
74
30
0
VERTEX
8
Meshes
62
254
10
0.0
20
0.0
30
0.0
70
128
71
10
72
46
73
29
0
VERTEX
8
Meshes
62
254
10
0.0
20
0.0
30
0.0
70
128
71
10
72
47
73
46
0
VERTEX
8
Meshes
62
254
10
0.0
20
0.0
30
0.0
70
128
71
46
72
47
73
48
74
45
0
VERTEX
8
Meshes
62
254
10
0.0
20
0.0
30
0.0
70
128
71
45
72
48
73
49
74
44
0
VERTEX
8
Meshes
62
254
10
0.0
20
0.0
30
0.0
70
128
71
44
72
49
73
50
74
43
0
VERTEX
8
Meshes
62
254
10
0.0
20
0.0
30
0.0
70
128
71
43
72
50
73
51
74
42
0
VERTEX
8
Meshes
62
254
10
0.0
20
0.0
30
0.0
70
128
71
42
72
51
73
52
74
41
0
VERTEX
8
Meshes
62
254
10
0.0
20
0.0
30
0.0
70
128
71
41
72
52
73
53
74
40
0
VERTEX
8
Meshes
62
254
10
0.0
20
0.0
30
0.0
70
128
71
40
72
53
73
54
74
39
0
VERTEX
8
Meshes
62
254
10
0.0
20
0.0
30
0.0
70
128
71
39
72
54
73
55
74
38
0
VERTEX
8
Meshes
62
254
10
0.0
20
0.0
30
0.0
70
128
71
54
72
57
73
56
74
55
0
VERTEX
8
Meshes
62
254
10
0.0
20
0.0
30
0.0
70
128
71
53
72
58
73
57
74
54
0
VERTEX
8
Meshes
62
254
10
0.0
20
0.0
30
0.0
70
128
71
52
72
59
73
58
74
53
0
VERTEX
8
Meshes
62
254
10
0.0
20
0.0
30
0.0
70
128
71
51
72
60
73
59
74
52
0
VERTEX
8
Meshes
62
254
10
0.0
20
0.0
30
0.0
70
128
71
50
72
61
73
60
74
51
0
VERTEX
8
Meshes
62
254
10
0.0
20
0.0
30
0.0
70
128
71
49
72
62
73
61
74
50
0
VERTEX
8
Meshes
62
254
10
0.0
20
0.0
30
0.0
70
128
71
48
72
63
73
62
74
49
0
VERTEX
8
Meshes
62
254
10
0.0
20
0.0
30
0.0
70
128
71
47
72
64
73
63
74
48
0
VERTEX
8
Meshes
62
254
10
0.0
20
0.0
30
0.0
70
128
71
10
72
64
73
47
0
VERTEX
8
Meshes
62
254
10
0.0
20
0.0
30
0.0
70
128
71
10
72
65
73
64
0
VERTEX
8
Meshes
62
254
10
0.0
20
0.0
30
0.0
70
128
71
64
72
65
73
66
74
63
0
VERTEX
8
Meshes
62
254
10
0.0
20
0.0
30
0.0
70
128
71
63
72
66
73
67
74
62
0
VERTEX
8
Meshes
62
254
10
0.0
20
0.0
30
0.0
70
128
71
62
72
67
73
68
74
61
0
VERTEX
8
Meshes
62
254
10
0.0
20
0.0
30
0.0
70
128
71
61
72
68
73
69
74
60
0
VERTEX
8
Meshes
62
254
10
0.0
20
0.0
30
0.0
70
128
71
60
72
69
73
70
74
59
0
VERTEX
8
Meshes
62
254
10
0.0
20
0.0
30
0.0
70
128
71
59
72
70
73
71
74
58
0
VERTEX
8
Meshes
62
254
10
0.0
20
0.0
30
0.0
70
128
71
58
72
71
73
72
74
57
0
VERTEX
8
Meshes
62
254
10
0.0
20
0.0
30
0.0
70
128
71
57
72
72
73
73
74
56
0
VERTEX
8
Meshes
62
254
10
0.0
20
0.0
30
0.0
70
128
71
72
72
75
73
74
74
73
0
VERTEX
8
Meshes
62
254
10
0.0
20
0.0
30
0.0
70
128
71
71
72
76
73
75
74
72
0
VERTEX
8
Meshes
62
254
10
0.0
20
0.0
30
0.0
70
128
71
70
72
77
73
76
74
71
0
VERTEX
8
Meshes
62
254
10
0.0
20
0.0
30
0.0
70
128
71
69
72
78
73
77
74
70
0
VERTEX
8
Meshes
62
254
10
0.0
20
0.0
30
0.0
70
128
71
68
72
79
73
78
74
69
0
VERTEX
8
Meshes
62
254
10
0.0
20
0.0
30
0.0
70
128
71
67
72
80
73
79
74
68
0
VERTEX
8
Meshes
62
254
10
0.0
20
0.0
30
0.0
70
128
71
66
72
81
73
80
74
67
0
VERTEX
8
Meshes
62
254
10
0.0
20
0.0
30
0.0
70
128
71
65
72
82
73
81
74
66
0
VERTEX
8
Meshes
62
254
10
0.0
20
0.0
30
0.0
70
128
71
10
72
82
73
65
0
VERTEX
8
Meshes
62
254
10
0.0
20
0.0
30
0.0
70
128
71
10
72
83
73
82
0
VERTEX
8
Meshes
62
254
10
0.0
20
0.0
30
0.0
70
128
71
82
72
83
73
84
74
81
0
VERTEX
8
Meshes
62
254
10
0.0
20
0.0
30
0.0
70
128
71
81
72
84
73
85
74
80
0
VERTEX
8
Meshes
62
254
10
0.0
20
0.0
30
0.0
70
128
71
80
72
85
73
86
74
79
0
VERTEX
8
Meshes
62
254
10
0.0
20
0.0
30
0.0
70
128
71
79
72
86
73
87
74
78
0
VERTEX
8
Meshes
62
254
10
0.0
20
0.0
30
0.0
70
128
71
78
72
87
73
88
74
77
0
VERTEX
8
Meshes
62
254
10
0.0
20
0.0
30
0.0
70
128
71
77
72
88
73
89
74
76
0
VERTEX
8
Meshes
62
254
10
0.0
20
0.0
30
0.0
70
128
71
76
72
89
73
90
74
75
0
VERTEX
8
Meshes
62
254
10
0.0
20
0.0
30
0.0
70
128
71
75
72
90
73
91
74
74
0
VERTEX
8
Meshes
62
254
10
0.0
20
0.0
30
0.0
70
128
71
1
72
91
73
90
74
2
0
VERTEX
8
Meshes
62
254
10
0.0
20
0.0
30
0.0
70
128
71
89
72
3
73
2
74
90
0
VERTEX
8
Meshes
62
254
10
0.0
20
0.0
30
0.0
70
128
71
88
72
4
73
3
74
89
0
VERTEX
8
Meshes
62
254
10
0.0
20
0.0
30
0.0
70
128
71
87
72
5
73
4
74
88
0
VERTEX
8
Meshes
62
254
10
0.0
20
0.0
30
0.0
70
128
71
86
72
6
73
5
74
87
0
VERTEX
8
Meshes
62
254
10
0.0
20
0.0
30
0.0
70
128
71
85
72
7
73
6
74
86
0
VERTEX
8
Meshes
62
254
10
0.0
20
0.0
30
0.0
70
128
71
84
72
8
73
7
74
85
0
VERTEX
8
Meshes
62
254
10
0.0
20
0.0
30
0.0
70
128
71
83
72
9
73
8
74
84
0
VERTEX
8
Meshes
62
254
10
0.0
20
0.0
30
0.0
70
128
71
10
72
9
73
83
0
VERTEX
8
Meshes
62
254
10
0.0
20
0.0
30
0.0
70
128
71
91
72
1
73
101
74
92
0
VERTEX
8
Meshes
62
254
10
0.0
20
0.0
30
0.0
70
128
71
74
72
91
73
92
74
93
0
VERTEX
8
Meshes
62
254
10
0.0
20
0.0
30
0.0
70
128
71
73
72
74
73
93
74
94
0
VERTEX
8
Meshes
62
254
10
0.0
20
0.0
30
0.0
70
128
71
56
72
73
73
94
74
95
0
VERTEX
8
Meshes
62
254
10
0.0
20
0.0
30
0.0
70
128
71
55
72
56
73
95
74
96
0
VERTEX
8
Meshes
62
254
10
0.0
20
0.0
30
0.0
70
128
71
38
72
55
73
96
74
97
0
VERTEX
8
Meshes
62
254
10
0.0
20
0.0
30
0.0
70
128
71
37
72
38
73
97
74
98
0
VERTEX
8
Meshes
62
254
10
0.0
20
0.0
30
0.0
70
128
71
20
72
37
73
98
74
99
0
VERTEX
8
Meshes
62
254
10
0.0
20
0.0
30
0.0
70
128
71
19
72
20
73
99
74
100
0
VERTEX
8
Meshes
62
254
10
0.0
20
0.0
30
0.0
70
128
71
1
72
19
73
100
74
101
0
VERTEX
8
Meshes
62
254
10
0.0
20
0.0
30
0.0
70
128
71
101
72
100
73
103
74
102
0
VERTEX
8
Meshes
62
254
10
0.0
20
0.0
30
0.0
70
128
71
100
72
99
73
104
74
103
0
VERTEX
8
Meshes
62
254
10
0.0
20
0.0
30
0.0
70
128
71
99
72
98
73
105
74
104
0
VERTEX
8
Meshes
62
254
10
0.0
20
0.0
30
0.0
70
128
71
98
72
97
73
106
74
105
0
VERTEX
8
Meshes
62
254
10
0.0
20
0.0
30
0.0
70
128
71
97
72
96
73
107
74
106
0
VERTEX
8
Meshes
62
254
10
0.0
20
0.0
30
0.0
70
128
71
96
72
95
73
108
74
107
0
VERTEX
8
Meshes
62
254
10
0.0
20
0.0
30
0.0
70
128
71
95
72
94
73
109
74
108
0
VERTEX
8
Meshes
62
254
10
0.0
20
0.0
30
0.0
70
128
71
94
72
93
73
110
74
109
0
VERTEX
8
Meshes
62
254
10
0.0
20
0.0
30
0.0
70
128
71
93
72
92
73
111
74
110
0
VERTEX
8
Meshes
62
254
10
0.0
20
0.0
30
0.0
70
128
71
92
72
101
73
102
74
111
0
VERTEX
8
Meshes
62
254
10
0.0
20
0.0
30
0.0
70
128
71
111
72
102
73
121
74
112
0
VERTEX
8
Meshes
62
254
10
0.0
20
0.0
30
0.0
70
128
71
110
72
111
73
112
74
113
0
VERTEX
8
Meshes
62
254
10
0.0
20
0.0
30
0.0
70
128
71
109
72
110
73
113
74
114
0
VERTEX
8
Meshes
62
254
10
0.0
20
0.0
30
0.0
70
128
71
108
72
109
73
114
74
115
0
VERTEX
8
Meshes
62
254
10
0.0
20
0.0
30
0.0
70
128
71
107
72
108
73
115
74
116
0
VERTEX
8
Meshes
62
254
10
0.0
20
0.0
30
0.0
70
128
71
106
72
107
73
116
74
117
0
VERTEX
8
Meshes
62
254
10
0.0
20
0.0
30
0.0
70
128
71
105
72
106
73
117
74
118
0
VERTEX
8
Meshes
62
254
10
0.0
20
0.0
30
0.0
70
128
71
104
72
105
73
118
74
119
0
VERTEX
8
Meshes
62
254
10
0.0
20
0.0
30
0.0
70
128
71
103
72
104
73
119
74
120
0
VERTEX
8
Meshes
62
254
10
0.0
20
0.0
30
0.0
70
128
71
102
72
103
73
120
74
121
0
VERTEX
8
Meshes
62
254
10
0.0
20
0.0
30
0.0
70
128
71
121
72
120
73
123
74
122
0
VERTEX
8
Meshes
62
254
10
0.0
20
0.0
30
0.0
70
128
71
120
72
119
73
124
74
123
0
VERTEX
8
Meshes
62
254
10
0.0
20
0.0
30
0.0
70
128
71
119
72
118
73
125
74
124
0
VERTEX
8
Meshes
62
254
10
0.0
20
0.0
30
0.0
70
128
71
118
72
117
73
126
74
125
0
VERTEX
8
Meshes
62
254
10
0.0
20
0.0
30
0.0
70
128
71
117
72
116
73
127
74
126
0
VERTEX
8
Meshes
62
254
10
0.0
20
0.0
30
0.0
70
128
71
116
72
115
73
128
74
127
0
VERTEX
8
Meshes
62
254
10
0.0
20
0.0
30
0.0
70
128
71
115
72
114
73
129
74
128
0
VERTEX
8
Meshes
62
254
10
0.0
20
0.0
30
0.0
70
128
71
114
72
113
73
130
74
129
0
VERTEX
8
Meshes
62
254
10
0.0
20
0.0
30
0.0
70
128
71
113
72
112
73
131
74
130
0
VERTEX
8
Meshes
62
254
10
0.0
20
0.0
30
0.0
70
128
71
112
72
121
73
122
74
131
0
VERTEX
8
Meshes
62
254
10
0.0
20
0.0
30
0.0
70
128
71
131
72
122
73
141
74
132
0
VERTEX
8
Meshes
62
254
10
0.0
20
0.0
30
0.0
70
128
71
130
72
131
73
132
74
133
0
VERTEX
8
Meshes
62
254
10
0.0
20
0.0
30
0.0
70
128
71
129
72
130
73
133
74
134
0
VERTEX
8
Meshes
62
254
10
0.0
20
0.0
30
0.0
70
128
71
128
72
129
73
134
74
135
0
VERTEX
8
Meshes
62
254
10
0.0
20
0.0
30
0.0
70
128
71
127
72
128
73
135
74
136
0
VERTEX
8
Meshes
62
254
10
0.0
20
0.0
30
0.0
70
128
71
126
72
127
73
136
74
137
0
VERTEX
8
Meshes
62
254
10
0.0
20
0.0
30
0.0
70
128
71
125
72
126
73
137
74
138
0
VERTEX
8
Meshes
62
254
10
0.0
20
0.0
30
0.0
70
128
71
124
72
125
73
138
74
139
0
VERTEX
8
Meshes
62
254
10
0.0
20
0.0
30
0.0
70
128
71
123
72
124
73
139
74
140
0
VERTEX
8
Meshes
62
254
10
0.0
20
0.0
30
0.0
70
128
71
122
72
123
73
140
74
141
0
VERTEX
8
Meshes
62
254
10
0.0
20
0.0
30
0.0
70
128
71
149
72
150
73
151
74
152
0
VERTEX
8
Meshes
62
254
10
0.0
20
0.0
30
0.0
70
128
71
150
72
132
73
169
74
151
0
VERTEX
8
Meshes
62
254
10
0.0
20
0.0
30
0.0
70
128
71
148
72
149
73
152
74
153
0
VERTEX
8
Meshes
62
254
10
0.0
20
0.0
30
0.0
70
128
71
147
72
148
73
153
74
154
0
VERTEX
8
Meshes
62
254
10
0.0
20
0.0
30
0.0
70
128
71
146
72
147
73
154
74
155
0
VERTEX
8
Meshes
62
254
10
0.0
20
0.0
30
0.0
70
128
71
145
72
146
73
155
74
156
0
VERTEX
8
Meshes
62
254
10
0.0
20
0.0
30
0.0
70
128
71
144
72
145
73
156
74
157
0
VERTEX
8
Meshes
62
254
10
0.0
20
0.0
30
0.0
70
128
71
143
72
144
73
157
74
158
0
VERTEX
8
Meshes
62
254
10
0.0
20
0.0
30
0.0
70
128
71
140
72
142
73
159
74
161
0
VERTEX
8
Meshes
62
254
10
0.0
20
0.0
30
0.0
70
128
71
142
72
143
73
158
74
159
0
VERTEX
8
Meshes
62
254
10
0.0
20
0.0
30
0.0
70
128
71
141
72
140
73
161
74
160
0
VERTEX
8
Meshes
62
254
10
0.0
20
0.0
30
0.0
70
128
71
140
72
139
73
162
74
161
0
VERTEX
8
Meshes
62
254
10
0.0
20
0.0
30
0.0
70
128
71
139
72
138
73
163
74
162
0
VERTEX
8
Meshes
62
254
10
0.0
20
0.0
30
0.0
70
128
71
138
72
137
73
164
74
163
0
VERTEX
8
Meshes
62
254
10
0.0
20
0.0
30
0.0
70
128
71
137
72
136
73
165
74
164
0
VERTEX
8
Meshes
62
254
10
0.0
20
0.0
30
0.0
70
128
71
136
72
135
73
166
74
165
0
VERTEX
8
Meshes
62
254
10
0.0
20
0.0
30
0.0
70
128
71
135
72
134
73
167
74
166
0
VERTEX
8
Meshes
62
254
10
0.0
20
0.0
30
0.0
70
128
71
134
72
133
73
168
74
167
0
VERTEX
8
Meshes
62
254
10
0.0
20
0.0
30
0.0
70
128
71
133
72
132
73
169
74
168
0
VERTEX
8
Meshes
62
254
10
0.0
20
0.0
30
0.0
70
128
71
132
72
141
73
160
74
169
0
VERTEX
8
Meshes
62
254
10
0.0
20
0.0
30
0.0
70
128
71
169
72
160
73
179
74
170
0
VERTEX
8
Meshes
62
254
10
0.0
20
0.0
30
0.0
70
128
71
168
72
169
73
170
74
171
0
VERTEX
8
Meshes
62
254
10
0.0
20
0.0
30
0.0
70
128
71
167
72
168
73
171
74
172
0
VERTEX
8
Meshes
62
254
10
0.0
20
0.0
30
0.0
70
128
71
166
72
167
73
172
74
173
0
VERTEX
8
Meshes
62
254
10
0.0
20
0.0
30
0.0
70
128
71
165
72
166
73
173
74
174
0
VERTEX
8
Meshes
62
254
10
0.0
20
0.0
30
0.0
70
128
71
164
72
165
73
174
74
175
0
VERTEX
8
Meshes
62
254
10
0.0
20
0.0
30
0.0
70
128
71
163
72
164
73
175
74
176
0
VERTEX
8
Meshes
62
254
10
0.0
20
0.0
30
0.0
70
128
71
162
72
163
73
176
74
177
0
VERTEX
8
Meshes
62
254
10
0.0
20
0.0
30
0.0
70
128
71
161
72
162
73
177
74
178
0
VERTEX
8
Meshes
62
254
10
0.0
20
0.0
30
0.0
70
128
71
160
72
161
73
178
74
179
0
VERTEX
8
Meshes
62
254
10
0.0
20
0.0
30
0.0
70
128
71
159
72
158
73
181
74
180
0
VERTEX
8
Meshes
62
254
10
0.0
20
0.0
30
0.0
70
128
71
161
72
159
73
180
74
178
0
VERTEX
8
Meshes
62
254
10
0.0
20
0.0
30
0.0
70
128
71
158
72
157
73
182
74
181
0
VERTEX
8
Meshes
62
254
10
0.0
20
0.0
30
0.0
70
128
71
157
72
156
73
183
74
182
0
VERTEX
8
Meshes
62
254
10
0.0
20
0.0
30
0.0
70
128
71
156
72
155
73
184
74
183
0
VERTEX
8
Meshes
62
254
10
0.0
20
0.0
30
0.0
70
128
71
155
72
154
73
185
74
184
0
VERTEX
8
Meshes
62
254
10
0.0
20
0.0
30
0.0
70
128
71
154
72
153
73
186
74
185
0
VERTEX
8
Meshes
62
254
10
0.0
20
0.0
30
0.0
70
128
71
153
72
152
73
187
74
186
0
VERTEX
8
Meshes
62
254
10
0.0
20
0.0
30
0.0
70
128
71
151
72
169
73
170
74
188
0
VERTEX
8
Meshes
62
254
10
0.0
20
0.0
30
0.0
70
128
71
152
72
151
73
188
74
187
0
VERTEX
8
Meshes
62
254
10
0.0
20
0.0
30
0.0
70
128
71
187
72
188
73
189
74
190
0
VERTEX
8
Meshes
62
254
10
0.0
20
0.0
30
0.0
70
128
71
188
72
170
73
207
74
189
0
VERTEX
8
Meshes
62
254
10
0.0
20
0.0
30
0.0
70
128
71
186
72
187
73
190
74
191
0
VERTEX
8
Meshes
62
254
10
0.0
20
0.0
30
0.0
70
128
71
185
72
186
73
191
74
192
0
VERTEX
8
Meshes
62
254
10
0.0
20
0.0
30
0.0
70
128
71
184
72
185
73
192
74
193
0
VERTEX
8
Meshes
62
254
10
0.0
20
0.0
30
0.0
70
128
71
183
72
184
73
193
74
194
0
VERTEX
8
Meshes
62
254
10
0.0
20
0.0
30
0.0
70
128
71
182
72
183
73
194
74
195
0
VERTEX
8
Meshes
62
254
10
0.0
20
0.0
30
0.0
70
128
71
181
72
182
73
195
74
196
0
VERTEX
8
Meshes
62
254
10
0.0
20
0.0
30
0.0
70
128
71
178
72
180
73
197
74
199
0
VERTEX
8
Meshes
62
254
10
0.0
20
0.0
30
0.0
70
128
71
180
72
181
73
196
74
197
0
VERTEX
8
Meshes
62
254
10
0.0
20
0.0
30
0.0
70
128
71
179
72
178
73
199
74
198
0
VERTEX
8
Meshes
62
254
10
0.0
20
0.0
30
0.0
70
128
71
178
72
177
73
200
74
199
0
VERTEX
8
Meshes
62
254
10
0.0
20
0.0
30
0.0
70
128
71
177
72
176
73
201
74
200
0
VERTEX
8
Meshes
62
254
10
0.0
20
0.0
30
0.0
70
128
71
176
72
175
73
202
74
201
0
VERTEX
8
Meshes
62
254
10
0.0
20
0.0
30
0.0
70
128
71
175
72
174
73
203
74
202
0
VERTEX
8
Meshes
62
254
10
0.0
20
0.0
30
0.0
70
128
71
174
72
173
73
204
74
203
0
VERTEX
8
Meshes
62
254
10
0.0
20
0.0
30
0.0
70
128
71
173
72
172
73
205
74
204
0
VERTEX
8
Meshes
62
254
10
0.0
20
0.0
30
0.0
70
128
71
172
72
171
73
206
74
205
0
VERTEX
8
Meshes
62
254
10
0.0
20
0.0
30
0.0
70
128
71
171
72
170
73
207
74
206
0
VERTEX
8
Meshes
62
254
10
0.0
20
0.0
30
0.0
70
128
71
170
72
179
73
198
74
207
0
VERTEX
8
Meshes
62
254
10
0.0
20
0.0
30
0.0
70
128
71
207
72
198
73
217
74
208
0
VERTEX
8
Meshes
62
254
10
0.0
20
0.0
30
0.0
70
128
71
206
72
207
73
208
74
209
0
VERTEX
8
Meshes
62
254
10
0.0
20
0.0
30
0.0
70
128
71
205
72
206
73
209
74
210
0
VERTEX
8
Meshes
62
254
10
0.0
20
0.0
30
0.0
70
128
71
204
72
205
73
210
74
211
0
VERTEX
8
Meshes
62
254
10
0.0
20
0.0
30
0.0
70
128
71
203
72
204
73
211
74
212
0
VERTEX
8
Meshes
62
254
10
0.0
20
0.0
30
0.0
70
128
71
202
72
203
73
212
74
213
0
VERTEX
8
Meshes
62
254
10
0.0
20
0.0
30
0.0
70
128
71
201
72
202
73
213
74
214
0
VERTEX
8
Meshes
62
254
10
0.0
20
0.0
30
0.0
70
128
71
200
72
201
73
214
74
215
0
VERTEX
8
Meshes
62
254
10
0.0
20
0.0
30
0.0
70
128
71
199
72
200
73
215
74
216
0
VERTEX
8
Meshes
62
254
10
0.0
20
0.0
30
0.0
70
128
71
198
72
199
73
216
74
217
0
VERTEX
8
Meshes
62
254
10
0.0
20
0.0
30
0.0
70
128
71
197
72
196
73
219
74
218
0
VERTEX
8
Meshes
62
254
10
0.0
20
0.0
30
0.0
70
128
71
199
72
197
73
218
74
216
0
VERTEX
8
Meshes
62
254
10
0.0
20
0.0
30
0.0
70
128
71
196
72
195
73
220
74
219
0
VERTEX
8
Meshes
62
254
10
0.0
20
0.0
30
0.0
70
128
71
195
72
194
73
221
74
220
0
VERTEX
8
Meshes
62
254
10
0.0
20
0.0
30
0.0
70
128
71
194
72
193
73
222
74
221
0
VERTEX
8
Meshes
62
254
10
0.0
20
0.0
30
0.0
70
128
71
193
72
192
73
223
74
222
0
VERTEX
8
Meshes
62
254
10
0.0
20
0.0
30
0.0
70
128
71
192
72
191
73
224
74
223
0
VERTEX
8
Meshes
62
254
10
0.0
20
0.0
30
0.0
70
128
71
191
72
190
73
225
74
224
0
VERTEX
8
Meshes
62
254
10
0.0
20
0.0
30
0.0
70
128
71
189
72
207
73
208
74
226
0
VERTEX
8
Meshes
62
254
10
0.0
20
0.0
30
0.0
70
128
71
190
72
189
73
226
74
225
0
VERTEX
8
Meshes
62
254
10
0.0
20
0.0
30
0.0
70
128
71
225
72
226
73
227
74
228
0
VERTEX
8
Meshes
62
254
10
0.0
20
0.0
30
0.0
70
128
71
226
72
208
73
245
74
227
0
VERTEX
8
Meshes
62
254
10
0.0
20
0.0
30
0.0
70
128
71
224
72
225
73
228
74
229
0
VERTEX
8
Meshes
62
254
10
0.0
20
0.0
30
0.0
70
128
71
223
72
224
73
229
74
230
0
VERTEX
8
Meshes
62
254
10
0.0
20
0.0
30
0.0
70
128
71
222
72
223
73
230
74
231
0
VERTEX
8
Meshes
62
254
10
0.0
20
0.0
30
0.0
70
128
71
221
72
222
73
231
74
232
0
VERTEX
8
Meshes
62
254
10
0.0
20
0.0
30
0.0
70
128
71
220
72
221
73
232
74
233
0
VERTEX
8
Meshes
62
254
10
0.0
20
0.0
30
0.0
70
128
71
219
72
220
73
233
74
234
0
VERTEX
8
Meshes
62
254
10
0.0
20
0.0
30
0.0
70
128
71
216
72
218
73
235
74
237
0
VERTEX
8
Meshes
62
254
10
0.0
20
0.0
30
0.0
70
128
71
218
72
219
73
234
74
235
0
VERTEX
8
Meshes
62
254
10
0.0
20
0.0
30
0.0
70
128
71
217
72
216
73
237
74
236
0
VERTEX
8
Meshes
62
254
10
0.0
20
0.0
30
0.0
70
128
71
216
72
215
73
238
74
237
0
VERTEX
8
Meshes
62
254
10
0.0
20
0.0
30
0.0
70
128
71
215
72
214
73
239
74
238
0
VERTEX
8
Meshes
62
254
10
0.0
20
0.0
30
0.0
70
128
71
214
72
213
73
240
74
239
0
VERTEX
8
Meshes
62
254
10
0.0
20
0.0
30
0.0
70
128
71
213
72
212
73
241
74
240
0
VERTEX
8
Meshes
62
254
10
0.0
20
0.0
30
0.0
70
128
71
212
72
211
73
242
74
241
0
VERTEX
8
Meshes
62
254
10
0.0
20
0.0
30
0.0
70
128
71
211
72
210
73
243
74
242
0
VERTEX
8
Meshes
62
254
10
0.0
20
0.0
30
0.0
70
128
71
210
72
209
73
244
74
243
0
VERTEX
8
Meshes
62
254
10
0.0
20
0.0
30
0.0
70
128
71
209
72
208
73
245
74
244
0
VERTEX
8
Meshes
62
254
10
0.0
20
0.0
30
0.0
70
128
71
208
72
217
73
236
74
245
0
VERTEX
8
Meshes
62
254
10
0.0
20
0.0
30
0.0
70
128
71
245
72
236
73
255
74
246
0
VERTEX
8
Meshes
62
254
10
0.0
20
0.0
30
0.0
70
128
71
244
72
245
73
246
74
247
0
VERTEX
8
Meshes
62
254
10
0.0
20
0.0
30
0.0
70
128
71
243
72
244
73
247
74
248
0
VERTEX
8
Meshes
62
254
10
0.0
20
0.0
30
0.0
70
128
71
242
72
243
73
248
74
249
0
VERTEX
8
Meshes
62
254
10
0.0
20
0.0
30
0.0
70
128
71
241
72
242
73
249
74
250
0
VERTEX
8
Meshes
62
254
10
0.0
20
0.0
30
0.0
70
128
71
240
72
241
73
250
74
251
0
VERTEX
8
Meshes
62
254
10
0.0
20
0.0
30
0.0
70
128
71
239
72
240
73
251
74
252
0
VERTEX
8
Meshes
62
254
10
0.0
20
0.0
30
0.0
70
128
71
238
72
239
73
252
74
253
0
VERTEX
8
Meshes
62
254
10
0.0
20
0.0
30
0.0
70
128
71
237
72
238
73
253
74
254
0
VERTEX
8
Meshes
62
254
10
0.0
20
0.0
30
0.0
70
128
71
236
72
237
73
254
74
255
0
VERTEX
8
Meshes
62
254
10
0.0
20
0.0
30
0.0
70
128
71
235
72
234
73
257
74
256
0
VERTEX
8
Meshes
62
254
10
0.0
20
0.0
30
0.0
70
128
71
237
72
235
73
256
74
254
0
VERTEX
8
Meshes
62
254
10
0.0
20
0.0
30
0.0
70
128
71
234
72
233
73
258
74
257
0
VERTEX
8
Meshes
62
254
10
0.0
20
0.0
30
0.0
70
128
71
233
72
232
73
259
74
258
0
VERTEX
8
Meshes
62
254
10
0.0
20
0.0
30
0.0
70
128
71
232
72
231
73
260
74
259
0
VERTEX
8
Meshes
62
254
10
0.0
20
0.0
30
0.0
70
128
71
231
72
230
73
261
74
260
0
VERTEX
8
Meshes
62
254
10
0.0
20
0.0
30
0.0
70
128
71
230
72
229
73
262
74
261
0
VERTEX
8
Meshes
62
254
10
0.0
20
0.0
30
0.0
70
128
71
229
72
228
73
263
74
262
0
VERTEX
8
Meshes
62
254
10
0.0
20
0.0
30
0.0
70
128
71
227
72
245
73
246
74
264
0
VERTEX
8
Meshes
62
254
10
0.0
20
0.0
30
0.0
70
128
71
228
72
227
73
264
74
263
0
VERTEX
8
Meshes
62
254
10
0.0
20
0.0
30
0.0
70
128
71
263
72
264
73
265
74
266
0
VERTEX
8
Meshes
62
254
10
0.0
20
0.0
30
0.0
70
128
71
264
72
246
73
283
74
265
0
VERTEX
8
Meshes
62
254
10
0.0
20
0.0
30
0.0
70
128
71
262
72
263
73
266
74
267
0
VERTEX
8
Meshes
62
254
10
0.0
20
0.0
30
0.0
70
128
71
261
72
262
73
267
74
268
0
VERTEX
8
Meshes
62
254
10
0.0
20
0.0
30
0.0
70
128
71
260
72
261
73
268
74
269
0
VERTEX
8
Meshes
62
254
10
0.0
20
0.0
30
0.0
70
128
71
259
72
260
73
269
74
270
0
VERTEX
8
Meshes
62
254
10
0.0
20
0.0
30
0.0
70
128
71
258
72
259
73
270
74
271
0
VERTEX
8
Meshes
62
254
10
0.0
20
0.0
30
0.0
70
128
71
257
72
258
73
271
74
272
0
VERTEX
8
Meshes
62
254
10
0.0
20
0.0
30
0.0
70
128
71
254
72
256
73
273
74
275
0
VERTEX
8
Meshes
62
254
10
0.0
20
0.0
30
0.0
70
128
71
256
72
257
73
272
74
273
0
VERTEX
8
Meshes
62
254
10
0.0
20
0.0
30
0.0
70
128
71
255
72
254
73
275
74
274
0
VERTEX
8
Meshes
62
254
10
0.0
20
0.0
30
0.0
70
128
71
254
72
253
73
276
74
275
0
VERTEX
8
Meshes
62
254
10
0.0
20
0.0
30
0.0
70
128
71
253
72
252
73
277
74
276
0
VERTEX
8
Meshes
62
254
10
0.0
20
0.0
30
0.0
70
128
71
252
72
251
73
278
74
277
0
VERTEX
8
Meshes
62
254
10
0.0
20
0.0
30
0.0
70
128
71
251
72
250
73
279
74
278
0
VERTEX
8
Meshes
62
254
10
0.0
20
0.0
30
0.0
70
128
71
250
72
249
73
280
74
279
0
VERTEX
8
Meshes
62
254
10
0.0
20
0.0
30
0.0
70
128
71
249
72
248
73
281
74
280
0
VERTEX
8
Meshes
62
254
10
0.0
20
0.0
30
0.0
70
128
71
248
72
247
73
282
74
281
0
VERTEX
8
Meshes
62
254
10
0.0
20
0.0
30
0.0
70
128
71
247
72
246
73
283
74
282
0
VERTEX
8
Meshes
62
254
10
0.0
20
0.0
30
0.0
70
128
71
246
72
255
73
274
74
283
0
VERTEX
8
Meshes
62
254
10
0.0
20
0.0
30
0.0
70
128
71
283
72
274
73
293
74
284
0
VERTEX
8
Meshes
62
254
10
0.0
20
0.0
30
0.0
70
128
71
282
72
283
73
284
74
285
0
VERTEX
8
Meshes
62
254
10
0.0
20
0.0
30
0.0
70
128
71
281
72
282
73
285
74
286
0
VERTEX
8
Meshes
62
254
10
0.0
20
0.0
30
0.0
70
128
71
280
72
281
73
286
74
287
0
VERTEX
8
Meshes
62
254
10
0.0
20
0.0
30
0.0
70
128
71
279
72
280
73
287
74
288
0
VERTEX
8
Meshes
62
254
10
0.0
20
0.0
30
0.0
70
128
71
278
72
279
73
288
74
289
0
VERTEX
8
Meshes
62
254
10
0.0
20
0.0
30
0.0
70
128
71
277
72
278
73
289
74
290
0
VERTEX
8
Meshes
62
254
10
0.0
20
0.0
30
0.0
70
128
71
276
72
277
73
290
74
291
0
VERTEX
8
Meshes
62
254
10
0.0
20
0.0
30
0.0
70
128
71
275
72
276
73
291
74
292
0
VERTEX
8
Meshes
62
254
10
0.0
20
0.0
30
0.0
70
128
71
274
72
275
73
292
74
293
0
VERTEX
8
Meshes
62
254
10
0.0
20
0.0
30
0.0
70
128
71
273
72
272
73
295
74
294
0
VERTEX
8
Meshes
62
254
10
0.0
20
0.0
30
0.0
70
128
71
275
72
273
73
294
74
292
0
VERTEX
8
Meshes
62
254
10
0.0
20
0.0
30
0.0
70
128
71
272
72
271
73
296
74
295
0
VERTEX
8
Meshes
62
254
10
0.0
20
0.0
30
0.0
70
128
71
271
72
270
73
297
74
296
0
VERTEX
8
Meshes
62
254
10
0.0
20
0.0
30
0.0
70
128
71
270
72
269
73
298
74
297
0
VERTEX
8
Meshes
62
254
10
0.0
20
0.0
30
0.0
70
128
71
269
72
268
73
299
74
298
0
VERTEX
8
Meshes
62
254
10
0.0
20
0.0
30
0.0
70
128
71
268
72
267
73
300
74
299
0
VERTEX
8
Meshes
62
254
10
0.0
20
0.0
30
0.0
70
128
71
267
72
266
73
301
74
300
0
VERTEX
8
Meshes
62
254
10
0.0
20
0.0
30
0.0
70
128
71
265
72
283
73
284
74
302
0
VERTEX
8
Meshes
62
254
10
0.0
20
0.0
30
0.0
70
128
71
266
72
265
73
302
74
301
0
VERTEX
8
Meshes
62
254
10
0.0
20
0.0
30
0.0
70
128
71
301
72
302
73
303
74
304
0
VERTEX
8
Meshes
62
254
10
0.0
20
0.0
30
0.0
70
128
71
302
72
284
73
321
74
303
0
VERTEX
8
Meshes
62
254
10
0.0
20
0.0
30
0.0
70
128
71
300
72
301
73
304
74
305
0
VERTEX
8
Meshes
62
254
10
0.0
20
0.0
30
0.0
70
128
71
299
72
300
73
305
74
306
0
VERTEX
8
Meshes
62
254
10
0.0
20
0.0
30
0.0
70
128
71
298
72
299
73
306
74
307
0
VERTEX
8
Meshes
62
254
10
0.0
20
0.0
30
0.0
70
128
71
297
72
298
73
307
74
308
0
VERTEX
8
Meshes
62
254
10
0.0
20
0.0
30
0.0
70
128
71
296
72
297
73
308
74
309
0
VERTEX
8
Meshes
62
254
10
0.0
20
0.0
30
0.0
70
128
71
295
72
296
73
309
74
310
0
VERTEX
8
Meshes
62
254
10
0.0
20
0.0
30
0.0
70
128
71
292
72
294
73
311
74
313
0
VERTEX
8
Meshes
62
254
10
0.0
20
0.0
30
0.0
70
128
71
294
72
295
73
310
74
311
0
VERTEX
8
Meshes
62
254
10
0.0
20
0.0
30
0.0
70
128
71
293
72
292
73
313
74
312
0
VERTEX
8
Meshes
62
254
10
0.0
20
0.0
30
0.0
70
128
71
292
72
291
73
314
74
313
0
VERTEX
8
Meshes
62
254
10
0.0
20
0.0
30
0.0
70
128
71
291
72
290
73
315
74
314
0
VERTEX
8
Meshes
62
254
10
0.0
20
0.0
30
0.0
70
128
71
290
72
289
73
316
74
315
0
VERTEX
8
Meshes
62
254
10
0.0
20
0.0
30
0.0
70
128
71
289
72
288
73
317
74
316
0
VERTEX
8
Meshes
62
254
10
0.0
20
0.0
30
0.0
70
128
71
288
72
287
73
318
74
317
0
VERTEX
8
Meshes
62
254
10
0.0
20
0.0
30
0.0
70
128
71
287
72
286
73
319
74
318
0
VERTEX
8
Meshes
62
254
10
0.0
20
0.0
30
0.0
70
128
71
286
72
285
73
320
74
319
0
VERTEX
8
Meshes
62
254
10
0.0
20
0.0
30
0.0
70
128
71
285
72
284
73
321
74
320
0
VERTEX
8
Meshes
62
254
10
0.0
20
0.0
30
0.0
70
128
71
284
72
293
73
312
74
321
0
VERTEX
8
Meshes
62
254
10
0.0
20
0.0
30
0.0
70
128
71
313
72
314
73
310
74
311
0
VERTEX
8
Meshes
62
254
10
0.0
20
0.0
30
0.0
70
128
71
314
72
315
73
309
74
310
0
VERTEX
8
Meshes
62
254
10
0.0
20
0.0
30
0.0
70
128
71
315
72
316
73
308
74
309
0
VERTEX
8
Meshes
62
254
10
0.0
20
0.0
30
0.0
70
128
71
316
72
317
73
307
74
308
0
VERTEX
8
Meshes
62
254
10
0.0
20
0.0
30
0.0
70
128
71
317
72
318
73
306
74
307
0
VERTEX
8
Meshes
62
254
10
0.0
20
0.0
30
0.0
70
128
71
318
72
319
73
305
74
306
0
VERTEX
8
Meshes
62
254
10
0.0
20
0.0
30
0.0
70
128
71
319
72
320
73
304
74
305
0
VERTEX
8
Meshes
62
254
10
0.0
20
0.0
30
0.0
70
128
71
320
72
321
73
303
74
304
0
SEQEND
0
ENDBLK
0
ENDSEC
0
SECTION
2
ENTITIES
0
INSERT
8
1
2
Mesh
10
0.008606
20
2.450824
30
0.000000
41
1.000000
42
1.000000
43
1.000000
50
0.000000
0
ENDSEC
0
EOF
