0
SECTION
2
HEADER
0
ENDSEC
0
SECTION
2
BLOCKS
0
BLOCK
2
Cone
8
Meshes
70
64
10
0.0
20
0.0
30
0.0
3
Cone
0
POLYLINE
66
1
8
Meshes
62
254
70
64
71
68
72
128
0
VERTEX
8
Meshes
10
-0.999976
20
-2.132884
30
0.999988
70
192
0
VERTEX
8
Meshes
10
-1.175851
20
-2.132884
30
0.785684
70
192
0
VERTEX
8
Meshes
10
-1.306537
20
-2.132884
30
0.541187
70
192
0
VERTEX
8
Meshes
10
-1.387014
20
-2.132885
30
0.275892
70
192
0
VERTEX
8
Meshes
10
-1.414187
20
-2.132885
30
-0.000006
70
192
0
VERTEX
8
Meshes
10
-1.387014
20
-2.132885
30
-0.275904
70
192
0
VERTEX
8
Meshes
10
-1.306538
20
-2.132885
30
-0.541199
70
192
0
VERTEX
8
Meshes
10
-1.175851
20
-2.132886
30
-0.785696
70
192
0
VERTEX
8
Meshes
10
-0.999976
20
-2.132886
30
-1.000000
70
192
0
VERTEX
8
Meshes
10
-0.785672
20
-2.132886
30
-1.175875
70
192
0
VERTEX
8
Meshes
10
-0.541175
20
-2.132886
30
-1.306562
70
192
0
VERTEX
8
Meshes
10
-0.275879
20
-2.132886
30
-1.387038
70
192
0
VERTEX
8
Meshes
10
0.000018
20
-2.132886
30
-1.414212
70
192
0
VERTEX
8
Meshes
10
0.275916
20
-2.132886
30
-1.387038
70
192
0
VERTEX
8
Meshes
10
0.541212
20
-2.132886
30
-1.306561
70
192
0
VERTEX
8
Meshes
10
0.785709
20
-2.132886
30
-1.175875
70
192
0
VERTEX
8
Meshes
10
1.000013
20
-2.132886
30
-1.000000
70
192
0
VERTEX
8
Meshes
10
1.175887
20
-2.132885
30
-0.785696
70
192
0
VERTEX
8
Meshes
10
1.306574
20
-2.132885
30
-0.541198
70
192
0
VERTEX
8
Meshes
10
1.387050
20
-2.132885
30
-0.275903
70
192
0
VERTEX
8
Meshes
10
1.414224
20
-2.132885
30
-0.000005
70
192
0
VERTEX
8
Meshes
10
1.387050
20
-2.132884
30
0.275893
70
192
0
VERTEX
8
Meshes
10
1.306573
20
-2.132884
30
0.541188
70
192
0
VERTEX
8
Meshes
10
1.175886
20
-2.132884
30
0.785686
70
192
0
VERTEX
8
Meshes
10
1.000011
20
-2.132884
30
0.999989
70
192
0
VERTEX
8
Meshes
10
0.785707
20
-2.132883
30
1.175864
70
192
0
VERTEX
8
Meshes
10
0.541209
20
-2.132883
30
1.306550
70
192
0
VERTEX
8
Meshes
10
0.275914
20
-2.132883
30
1.387026
70
192
0
VERTEX
8
Meshes
10
0.000016
20
-2.132883
30
1.414199
70
192
0
VERTEX
8
Meshes
10
-0.275882
20
-2.132883
30
1.387025
70
192
0
VERTEX
8
Meshes
10
-0.541177
20
-2.132883
30
1.306548
70
192
0
VERTEX
8
Meshes
10
-0.785674
20
-2.132884
30
1.175861
70
192
0
VERTEX
8
Meshes
10
0.000018
20
-0.132885
30
-0.000008
70
192
0
VERTEX
8
Meshes
10
0.000018
20
-2.132885
30
-0.000006
70
192
0
VERTEX
8
Meshes
10
-1.001392
20
1.929182
30
-1.000015
70
192
0
VERTEX
8
Meshes
10
-1.177267
20
1.928934
30
-0.785710
70
192
0
VERTEX
8
Meshes
10
-1.307954
20
1.928750
30
-0.541211
70
192
0
VERTEX
8
Meshes
10
-1.388431
20
1.928636
30
-0.275914
70
192
0
VERTEX
8
Meshes
10
-1.415605
20
1.928598
30
-0.000015
70
192
0
VERTEX
8
Meshes
10
-1.388431
20
1.928637
30
0.275884
70
192
0
VERTEX
8
Meshes
10
-1.307954
20
1.928750
30
0.541181
70
192
0
VERTEX
8
Meshes
10
-1.177267
20
1.928935
30
0.785680
70
192
0
VERTEX
8
Meshes
10
-1.001392
20
1.929183
30
0.999985
70
192
0
VERTEX
8
Meshes
10
-0.787087
20
1.929485
30
1.175861
70
192
0
VERTEX
8
Meshes
10
-0.542588
20
1.929830
30
1.306548
70
192
0
VERTEX
8
Meshes
10
-0.277291
20
1.930205
30
1.387025
70
192
0
VERTEX
8
Meshes
10
-0.001392
20
1.930594
30
1.414199
70
192
0
VERTEX
8
Meshes
10
0.274507
20
1.930983
30
1.387025
70
192
0
VERTEX
8
Meshes
10
0.539803
20
1.931357
30
1.306548
70
192
0
VERTEX
8
Meshes
10
0.784302
20
1.931702
30
1.175860
70
192
0
VERTEX
8
Meshes
10
0.998607
20
1.932004
30
0.999985
70
192
0
VERTEX
8
Meshes
10
1.174482
20
1.932252
30
0.785679
70
192
0
VERTEX
8
Meshes
10
1.305169
20
1.932436
30
0.541180
70
192
0
VERTEX
8
Meshes
10
1.385646
20
1.932550
30
0.275883
70
192
0
VERTEX
8
Meshes
10
1.412819
20
1.932588
30
-0.000016
70
192
0
VERTEX
8
Meshes
10
1.385645
20
1.932549
30
-0.275916
70
192
0
VERTEX
8
Meshes
10
1.305168
20
1.932436
30
-0.541212
70
192
0
VERTEX
8
Meshes
10
1.174481
20
1.932251
30
-0.785711
70
192
0
VERTEX
8
Meshes
10
0.998605
20
1.932003
30
-1.000016
70
192
0
VERTEX
8
Meshes
10
0.784300
20
1.931701
30
-1.175891
70
192
0
VERTEX
8
Meshes
10
0.539801
20
1.931356
30
-1.306578
70
192
0
VERTEX
8
Meshes
10
0.274504
20
1.930982
30
-1.387055
70
192
0
VERTEX
8
Meshes
10
-0.001395
20
1.930593
30
-1.414228
70
192
0
VERTEX
8
Meshes
10
-0.277294
20
1.930203
30
-1.387054
70
192
0
VERTEX
8
Meshes
10
-0.542591
20
1.929829
30
-1.306577
70
192
0
VERTEX
8
Meshes
10
-0.787089
20
1.929484
30
-1.175889
70
192
0
VERTEX
8
Meshes
10
0.001429
20
-0.069405
30
-0.000014
70
192
0
VERTEX
8
Meshes
10
-0.001393
20
1.930593
30
-0.000015
70
192
0
VERTEX
8
Meshes
62
254
10
0.0
20
0.0
30
0.0
70
128
71
2
72
1
73
33
0
VERTEX
8
Meshes
62
254
10
0.0
20
0.0
30
0.0
70
128
71
33
72
3
73
2
0
VERTEX
8
Meshes
62
254
10
0.0
20
0.0
30
0.0
70
128
71
33
72
4
73
3
0
VERTEX
8
Meshes
62
254
10
0.0
20
0.0
30
0.0
70
128
71
33
72
5
73
4
0
VERTEX
8
Meshes
62
254
10
0.0
20
0.0
30
0.0
70
128
71
33
72
6
73
5
0
VERTEX
8
Meshes
62
254
10
0.0
20
0.0
30
0.0
70
128
71
33
72
7
73
6
0
VERTEX
8
Meshes
62
254
10
0.0
20
0.0
30
0.0
70
128
71
33
72
8
73
7
0
VERTEX
8
Meshes
62
254
10
0.0
20
0.0
30
0.0
70
128
71
33
72
9
73
8
0
VERTEX
8
Meshes
62
254
10
0.0
20
0.0
30
0.0
70
128
71
33
72
10
73
9
0
VERTEX
8
Meshes
62
254
10
0.0
20
0.0
30
0.0
70
128
71
33
72
11
73
10
0
VERTEX
8
Meshes
62
254
10
0.0
20
0.0
30
0.0
70
128
71
33
72
12
73
11
0
VERTEX
8
Meshes
62
254
10
0.0
20
0.0
30
0.0
70
128
71
33
72
13
73
12
0
VERTEX
8
Meshes
62
254
10
0.0
20
0.0
30
0.0
70
128
71
33
72
14
73
13
0
VERTEX
8
Meshes
62
254
10
0.0
20
0.0
30
0.0
70
128
71
33
72
15
73
14
0
VERTEX
8
Meshes
62
254
10
0.0
20
0.0
30
0.0
70
128
71
33
72
16
73
15
0
VERTEX
8
Meshes
62
254
10
0.0
20
0.0
30
0.0
70
128
71
33
72
17
73
16
0
VERTEX
8
Meshes
62
254
10
0.0
20
0.0
30
0.0
70
128
71
33
72
18
73
17
0
VERTEX
8
Meshes
62
254
10
0.0
20
0.0
30
0.0
70
128
71
33
72
19
73
18
0
VERTEX
8
Meshes
62
254
10
0.0
20
0.0
30
0.0
70
128
71
33
72
20
73
19
0
VERTEX
8
Meshes
62
254
10
0.0
20
0.0
30
0.0
70
128
71
33
72
21
73
20
0
VERTEX
8
Meshes
62
254
10
0.0
20
0.0
30
0.0
70
128
71
33
72
22
73
21
0
VERTEX
8
Meshes
62
254
10
0.0
20
0.0
30
0.0
70
128
71
33
72
23
73
22
0
VERTEX
8
Meshes
62
254
10
0.0
20
0.0
30
0.0
70
128
71
33
72
24
73
23
0
VERTEX
8
Meshes
62
254
10
0.0
20
0.0
30
0.0
70
128
71
33
72
25
73
24
0
VERTEX
8
Meshes
62
254
10
0.0
20
0.0
30
0.0
70
128
71
33
72
26
73
25
0
VERTEX
8
Meshes
62
254
10
0.0
20
0.0
30
0.0
70
128
71
33
72
27
73
26
0
VERTEX
8
Meshes
62
254
10
0.0
20
0.0
30
0.0
70
128
71
33
72
28
73
27
0
VERTEX
8
Meshes
62
254
10
0.0
20
0.0
30
0.0
70
128
71
33
72
29
73
28
0
VERTEX
8
Meshes
62
254
10
0.0
20
0.0
30
0.0
70
128
71
33
72
30
73
29
0
VERTEX
8
Meshes
62
254
10
0.0
20
0.0
30
0.0
70
128
71
33
72
31
73
30
0
VERTEX
8
Meshes
62
254
10
0.0
20
0.0
30
0.0
70
128
71
33
72
32
73
31
0
VERTEX
8
Meshes
62
254
10
0.0
20
0.0
30
0.0
70
128
71
33
72
1
73
32
0
VERTEX
8
Meshes
62
254
10
0.0
20
0.0
30
0.0
70
128
71
34
72
1
73
2
0
VERTEX
8
Meshes
62
254
10
0.0
20
0.0
30
0.0
70
128
71
34
72
2
73
3
0
VERTEX
8
Meshes
62
254
10
0.0
20
0.0
30
0.0
70
128
71
34
72
3
73
4
0
VERTEX
8
Meshes
62
254
10
0.0
20
0.0
30
0.0
70
128
71
34
72
4
73
5
0
VERTEX
8
Meshes
62
254
10
0.0
20
0.0
30
0.0
70
128
71
34
72
5
73
6
0
VERTEX
8
Meshes
62
254
10
0.0
20
0.0
30
0.0
70
128
71
34
72
6
73
7
0
VERTEX
8
Meshes
62
254
10
0.0
20
0.0
30
0.0
70
128
71
34
72
7
73
8
0
VERTEX
8
Meshes
62
254
10
0.0
20
0.0
30
0.0
70
128
71
34
72
8
73
9
0
VERTEX
8
Meshes
62
254
10
0.0
20
0.0
30
0.0
70
128
71
34
72
9
73
10
0
VERTEX
8
Meshes
62
254
10
0.0
20
0.0
30
0.0
70
128
71
34
72
10
73
11
0
VERTEX
8
Meshes
62
254
10
0.0
20
0.0
30
0.0
70
128
71
34
72
11
73
12
0
VERTEX
8
Meshes
62
254
10
0.0
20
0.0
30
0.0
70
128
71
34
72
12
73
13
0
VERTEX
8
Meshes
62
254
10
0.0
20
0.0
30
0.0
70
128
71
34
72
13
73
14
0
VERTEX
8
Meshes
62
254
10
0.0
20
0.0
30
0.0
70
128
71
34
72
14
73
15
0
VERTEX
8
Meshes
62
254
10
0.0
20
0.0
30
0.0
70
128
71
34
72
15
73
16
0
VERTEX
8
Meshes
62
254
10
0.0
20
0.0
30
0.0
70
128
71
34
72
16
73
17
0
VERTEX
8
Meshes
62
254
10
0.0
20
0.0
30
0.0
70
128
71
34
72
17
73
18
0
VERTEX
8
Meshes
62
254
10
0.0
20
0.0
30
0.0
70
128
71
34
72
18
73
19
0
VERTEX
8
Meshes
62
254
10
0.0
20
0.0
30
0.0
70
128
71
34
72
19
73
20
0
VERTEX
8
Meshes
62
254
10
0.0
20
0.0
30
0.0
70
128
71
34
72
20
73
21
0
VERTEX
8
Meshes
62
254
10
0.0
20
0.0
30
0.0
70
128
71
34
72
21
73
22
0
VERTEX
8
Meshes
62
254
10
0.0
20
0.0
30
0.0
70
128
71
34
72
22
73
23
0
VERTEX
8
Meshes
62
254
10
0.0
20
0.0
30
0.0
70
128
71
34
72
23
73
24
0
VERTEX
8
Meshes
62
254
10
0.0
20
0.0
30
0.0
70
128
71
34
72
24
73
25
0
VERTEX
8
Meshes
62
254
10
0.0
20
0.0
30
0.0
70
128
71
34
72
25
73
26
0
VERTEX
8
Meshes
62
254
10
0.0
20
0.0
30
0.0
70
128
71
34
72
26
73
27
0
VERTEX
8
Meshes
62
254
10
0.0
20
0.0
30
0.0
70
128
71
34
72
27
73
28
0
VERTEX
8
Meshes
62
254
10
0.0
20
0.0
30
0.0
70
128
71
34
72
28
73
29
0
VERTEX
8
Meshes
62
254
10
0.0
20
0.0
30
0.0
70
128
71
34
72
29
73
30
0
VERTEX
8
Meshes
62
254
10
0.0
20
0.0
30
0.0
70
128
71
34
72
30
73
31
0
VERTEX
8
Meshes
62
254
10
0.0
20
0.0
30
0.0
70
128
71
34
72
31
73
32
0
VERTEX
8
Meshes
62
254
10
0.0
20
0.0
30
0.0
70
128
71
32
72
1
73
34
0
VERTEX
8
Meshes
62
254
10
0.0
20
0.0
30
0.0
70
128
71
67
72
36
73
35
0
VERTEX
8
Meshes
62
254
10
0.0
20
0.0
30
0.0
70
128
71
67
72
37
73
36
0
VERTEX
8
Meshes
62
254
10
0.0
20
0.0
30
0.0
70
128
71
67
72
38
73
37
0
VERTEX
8
Meshes
62
254
10
0.0
20
0.0
30
0.0
70
128
71
67
72
39
73
38
0
VERTEX
8
Meshes
62
254
10
0.0
20
0.0
30
0.0
70
128
71
67
72
40
73
39
0
VERTEX
8
Meshes
62
254
10
0.0
20
0.0
30
0.0
70
128
71
67
72
41
73
40
0
VERTEX
8
Meshes
62
254
10
0.0
20
0.0
30
0.0
70
128
71
67
72
42
73
41
0
VERTEX
8
Meshes
62
254
10
0.0
20
0.0
30
0.0
70
128
71
67
72
43
73
42
0
VERTEX
8
Meshes
62
254
10
0.0
20
0.0
30
0.0
70
128
71
67
72
44
73
43
0
VERTEX
8
Meshes
62
254
10
0.0
20
0.0
30
0.0
70
128
71
67
72
45
73
44
0
VERTEX
8
Meshes
62
254
10
0.0
20
0.0
30
0.0
70
128
71
67
72
46
73
45
0
VERTEX
8
Meshes
62
254
10
0.0
20
0.0
30
0.0
70
128
71
67
72
47
73
46
0
VERTEX
8
Meshes
62
254
10
0.0
20
0.0
30
0.0
70
128
71
67
72
48
73
47
0
VERTEX
8
Meshes
62
254
10
0.0
20
0.0
30
0.0
70
128
71
67
72
49
73
48
0
VERTEX
8
Meshes
62
254
10
0.0
20
0.0
30
0.0
70
128
71
67
72
50
73
49
0
VERTEX
8
Meshes
62
254
10
0.0
20
0.0
30
0.0
70
128
71
67
72
51
73
50
0
VERTEX
8
Meshes
62
254
10
0.0
20
0.0
30
0.0
70
128
71
67
72
52
73
51
0
VERTEX
8
Meshes
62
254
10
0.0
20
0.0
30
0.0
70
128
71
67
72
53
73
52
0
VERTEX
8
Meshes
62
254
10
0.0
20
0.0
30
0.0
70
128
71
67
72
54
73
53
0
VERTEX
8
Meshes
62
254
10
0.0
20
0.0
30
0.0
70
128
71
67
72
55
73
54
0
VERTEX
8
Meshes
62
254
10
0.0
20
0.0
30
0.0
70
128
71
67
72
56
73
55
0
VERTEX
8
Meshes
62
254
10
0.0
20
0.0
30
0.0
70
128
71
67
72
57
73
56
0
VERTEX
8
Meshes
62
254
10
0.0
20
0.0
30
0.0
70
128
71
67
72
58
73
57
0
VERTEX
8
Meshes
62
254
10
0.0
20
0.0
30
0.0
70
128
71
67
72
59
73
58
0
VERTEX
8
Meshes
62
254
10
0.0
20
0.0
30
0.0
70
128
71
67
72
60
73
59
0
VERTEX
8
Meshes
62
254
10
0.0
20
0.0
30
0.0
70
128
71
67
72
61
73
60
0
VERTEX
8
Meshes
62
254
10
0.0
20
0.0
30
0.0
70
128
71
67
72
62
73
61
0
VERTEX
8
Meshes
62
254
10
0.0
20
0.0
30
0.0
70
128
71
67
72
63
73
62
0
VERTEX
8
Meshes
62
254
10
0.0
20
0.0
30
0.0
70
128
71
67
72
64
73
63
0
VERTEX
8
Meshes
62
254
10
0.0
20
0.0
30
0.0
70
128
71
67
72
65
73
64
0
VERTEX
8
Meshes
62
254
10
0.0
20
0.0
30
0.0
70
128
71
67
72
66
73
65
0
VERTEX
8
Meshes
62
254
10
0.0
20
0.0
30
0.0
70
128
71
67
72
35
73
66
0
VERTEX
8
Meshes
62
254
10
0.0
20
0.0
30
0.0
70
128
71
68
72
35
73
36
0
VERTEX
8
Meshes
62
254
10
0.0
20
0.0
30
0.0
70
128
71
68
72
36
73
37
0
VERTEX
8
Meshes
62
254
10
0.0
20
0.0
30
0.0
70
128
71
68
72
37
73
38
0
VERTEX
8
Meshes
62
254
10
0.0
20
0.0
30
0.0
70
128
71
68
72
38
73
39
0
VERTEX
8
Meshes
62
254
10
0.0
20
0.0
30
0.0
70
128
71
68
72
39
73
40
0
VERTEX
8
Meshes
62
254
10
0.0
20
0.0
30
0.0
70
128
71
68
72
40
73
41
0
VERTEX
8
Meshes
62
254
10
0.0
20
0.0
30
0.0
70
128
71
68
72
41
73
42
0
VERTEX
8
Meshes
62
254
10
0.0
20
0.0
30
0.0
70
128
71
68
72
42
73
43
0
VERTEX
8
Meshes
62
254
10
0.0
20
0.0
30
0.0
70
128
71
68
72
43
73
44
0
VERTEX
8
Meshes
62
254
10
0.0
20
0.0
30
0.0
70
128
71
68
72
44
73
45
0
VERTEX
8
Meshes
62
254
10
0.0
20
0.0
30
0.0
70
128
71
68
72
45
73
46
0
VERTEX
8
Meshes
62
254
10
0.0
20
0.0
30
0.0
70
128
71
68
72
46
73
47
0
VERTEX
8
Meshes
62
254
10
0.0
20
0.0
30
0.0
70
128
71
68
72
47
73
48
0
VERTEX
8
Meshes
62
254
10
0.0
20
0.0
30
0.0
70
128
71
68
72
48
73
49
0
VERTEX
8
Meshes
62
254
10
0.0
20
0.0
30
0.0
70
128
71
68
72
49
73
50
0
VERTEX
8
Meshes
62
254
10
0.0
20
0.0
30
0.0
70
128
71
68
72
50
73
51
0
VERTEX
8
Meshes
62
254
10
0.0
20
0.0
30
0.0
70
128
71
68
72
51
73
52
0
VERTEX
8
Meshes
62
254
10
0.0
20
0.0
30
0.0
70
128
71
68
72
52
73
53
0
VERTEX
8
Meshes
62
254
10
0.0
20
0.0
30
0.0
70
128
71
68
72
53
73
54
0
VERTEX
8
Meshes
62
254
10
0.0
20
0.0
30
0.0
70
128
71
68
72
54
73
55
0
VERTEX
8
Meshes
62
254
10
0.0
20
0.0
30
0.0
70
128
71
68
72
55
73
56
0
VERTEX
8
Meshes
62
254
10
0.0
20
0.0
30
0.0
70
128
71
68
72
56
73
57
0
VERTEX
8
Meshes
62
254
10
0.0
20
0.0
30
0.0
70
128
71
68
72
57
73
58
0
VERTEX
8
Meshes
62
254
10
0.0
20
0.0
30
0.0
70
128
71
68
72
58
73
59
0
VERTEX
8
Meshes
62
254
10
0.0
20
0.0
30
0.0
70
128
71
68
72
59
73
60
0
VERTEX
8
Meshes
62
254
10
0.0
20
0.0
30
0.0
70
128
71
68
72
60
73
61
0
VERTEX
8
Meshes
62
254
10
0.0
20
0.0
30
0.0
70
128
71
68
72
61
73
62
0
VERTEX
8
Meshes
62
254
10
0.0
20
0.0
30
0.0
70
128
71
68
72
62
73
63
0
VERTEX
8
Meshes
62
254
10
0.0
20
0.0
30
0.0
70
128
71
68
72
63
73
64
0
VERTEX
8
Meshes
62
254
10
0.0
20
0.0
30
0.0
70
128
71
68
72
64
73
65
0
VERTEX
8
Meshes
62
254
10
0.0
20
0.0
30
0.0
70
128
71
68
72
65
73
66
0
VERTEX
8
Meshes
62
254
10
0.0
20
0.0
30
0.0
70
128
71
68
72
66
73
35
0
SEQEND
0
ENDBLK
0
ENDSEC
0
SECTION
2
ENTITIES
0
INSERT
8
1
2
Cone
10
0.000000
20
0.000000
30
0.000000
41
1.000000
42
1.000000
43
1.000000
50
0.000000
0
ENDSEC
0
EOF
